<?xml version="1.0" standalone="no"?>
<!DOCTYPE svg PUBLIC "-//W3C//DTD SVG 20010904//EN"
 "http://www.w3.org/TR/2001/REC-SVG-20010904/DTD/svg10.dtd">
<svg version="1.0" xmlns="http://www.w3.org/2000/svg"
 width="1250.000000pt" height="1250.000000pt" viewBox="0 0 1250.000000 1250.000000"
 preserveAspectRatio="xMidYMid meet">
<metadata>
Created by potrace 1.11, written by Peter Selinger 2001-2013
</metadata>
<g transform="translate(0.000000,1250.000000) scale(0.100000,-0.100000)"
fill="#000000" stroke="none">
<path d="M6873 11939 c-105 -20 -198 -62 -295 -135 l-72 -53 -31 18 c-119 70
-353 93 -500 49 -22 -6 -46 -13 -53 -14 -31 -6 -142 -65 -194 -104 -50 -38
-158 -157 -158 -175 0 -4 -8 -19 -19 -33 -10 -15 -27 -53 -36 -84 l-18 -57
-46 33 c-114 83 -244 124 -392 124 -125 0 -249 -33 -419 -111 -64 -29 -98 -44
-320 -144 -210 -94 -279 -132 -362 -199 -200 -161 -277 -363 -243 -635 l5 -47
-39 14 c-22 7 -55 16 -73 19 -18 3 -51 10 -73 14 -36 8 -107 13 -190 14 -137
1 -348 -55 -494 -130 -152 -80 -365 -246 -538 -420 -214 -217 -286 -471 -201
-716 11 -32 18 -60 17 -62 -2 -1 -31 3 -64 10 -90 19 -246 12 -325 -15 -115
-38 -180 -80 -270 -170 -70 -69 -94 -103 -133 -180 -26 -52 -54 -124 -63 -160
-17 -68 -22 -185 -11 -257 6 -41 6 -42 -31 -53 -188 -60 -362 -242 -430 -450
-45 -140 -49 -254 -11 -395 13 -46 74 -171 89 -180 20 -13 9 -24 -42 -41 -204
-66 -366 -235 -443 -459 -17 -50 -97 -375 -156 -635 -74 -320 -28 -554 141
-730 82 -84 147 -127 285 -185 48 -20 35 -16 215 -60 80 -19 237 -57 350 -85
609 -147 643 -155 710 -166 19 -3 41 -7 49 -10 42 -14 220 -4 306 18 66 16 80
15 81 -7 3 -55 16 -201 19 -215 2 -10 6 -41 10 -71 3 -30 10 -79 15 -109 5
-30 12 -71 15 -90 14 -86 19 -112 46 -230 55 -243 159 -573 233 -745 7 -16 26
-59 41 -95 213 -500 565 -1025 949 -1420 98 -100 236 -232 287 -275 98 -81
145 -121 149 -125 7 -7 131 -102 214 -162 36 -27 69 -48 75 -48 5 0 11 -4 13
-8 3 -10 163 -114 282 -185 68 -40 373 -195 461 -234 282 -125 638 -243 900
-297 11 -3 52 -11 90 -19 39 -9 86 -18 105 -21 19 -3 44 -7 55 -10 11 -2 42
-7 68 -10 27 -4 56 -9 65 -11 10 -1 46 -6 82 -10 36 -4 72 -9 81 -10 141 -27
836 -27 1001 1 15 2 49 6 75 9 339 34 892 176 1188 304 11 5 61 26 110 46 165
69 372 176 610 316 85 50 277 181 381 260 190 143 314 251 493 429 158 156
229 236 394 440 140 173 360 517 477 745 159 312 336 780 384 1015 8 40 13 62
30 125 16 64 52 257 61 333 4 26 8 54 10 62 2 8 7 42 10 75 3 33 8 69 10 80
26 127 27 864 1 1001 -2 10 -7 46 -10 79 -8 66 -8 66 -32 210 -9 55 -17 109
-19 120 -2 11 -13 63 -25 115 -12 52 -23 102 -25 110 -2 8 -11 42 -20 75 -9
33 -18 70 -21 82 -2 12 -9 35 -15 50 -6 16 -12 36 -14 45 -8 37 -90 270 -137
388 -60 149 -207 454 -272 563 -25 43 -46 81 -46 83 0 3 -8 17 -18 32 -11 15
-30 45 -44 67 -80 130 -274 403 -344 485 -160 187 -168 196 -280 312 -251 257
-484 450 -779 646 -88 58 -162 107 -164 109 -3 2 6 17 18 34 28 38 85 153 96
194 14 53 16 59 22 110 11 77 5 249 -11 330 -2 11 -11 61 -21 110 -9 50 -28
137 -41 195 -14 58 -27 113 -29 122 -5 23 -52 200 -70 263 -8 28 -49 169 -91
315 -42 146 -78 274 -80 284 -8 40 -38 123 -62 171 -123 247 -349 382 -632
378 -143 -1 -276 -47 -395 -136 -84 -61 -98 -77 -274 -297 -86 -107 -164 -204
-173 -215 -9 -11 -29 -37 -45 -57 -43 -57 -241 -318 -271 -357 -60 -78 -58
-76 -74 -61 -13 13 -9 22 29 79 196 293 229 577 96 821 -93 170 -278 308 -463
345 -53 11 -210 13 -257 4z"/>
</g>
</svg>
