<?xml version="1.0" encoding="utf-8"?>
<!-- Generator: Adobe Illustrator 15.0.0, SVG Export Plug-In . SVG Version: 6.00 Build 0)  -->
<!DOCTYPE svg PUBLIC "-//W3C//DTD SVG 1.1//EN" "http://www.w3.org/Graphics/SVG/1.1/DTD/svg11.dtd">
<svg version="1.1" id="Layer_1" xmlns="http://www.w3.org/2000/svg" xmlns:xlink="http://www.w3.org/1999/xlink" x="0px" y="0px"
	 width="300px" height="300px" viewBox="0 0 300 300" enable-background="new 0 0 300 300" xml:space="preserve">
<g>
	<g>
		<path fill="#F15A29" d="M268.68,53.195c-1.272-3.163-3.649-5.852-6.862-7.776c-3.076-1.835-6.575-2.595-10.119-2.189
			c-2.949,0.334-5.781,1.383-8.362,3.089l-8.895,5.544c-4.935,3.083-9.107,5.828-12.441,8.178c-0.092-0.149-0.161-0.29-0.255-0.439
			c-0.1-0.164-0.204-0.322-0.314-0.478c-0.022-0.032-0.045-0.063-0.066-0.096c5.932-4.132,9.153-8.188,10.131-12.75
			c0.941-4.375,0.155-8.684-2.284-12.466c-2.438-3.772-6.039-6.264-10.42-7.207c-3.176-0.686-6.607-0.261-10.288,1.296
			c-2.247-2.759-5.486-4.698-9.409-5.544c-5.346-1.148-10.403,0.112-14.306,3.619c-0.925,0.842-1.743,1.79-2.472,2.825
			c-1.298-2.336-3.167-4.299-5.577-5.741c-3.277-1.929-7.165-2.72-11.549-2.354l-13.903,1.16
			c-5.811,0.484-10.223,2.514-13.174,6.005c-2.031,2.4-3.238,5.387-3.655,8.894c-2.472-2.083-5.343-3.663-8.609-4.631
			c-6.228-1.861-12.979-1.43-19.924,1.292l-5.209,2.042c-5.469,2.146-9.195,5.325-11.074,9.452c-1.094,2.403-1.5,5.057-1.263,7.915
			c-1.722-1.242-3.537-2.15-5.442-2.699c-5.042-1.461-10.304-0.294-14.655,3.293c-3.515,2.896-5.574,6.617-6.005,10.638
			c-4.055-0.34-8.112,0.994-11.571,3.846c-4.405,3.628-6.568,8.531-6.087,13.839c0.105,1.113,0.344,2.225,0.687,3.33
			c-1.714-0.223-3.448-0.168-5.173,0.208c-0.798,0.174-1.596,0.417-2.448,0.75c-3.529,1.411-6.535,3.997-8.93,7.682l-7.604,11.705
			c-3.158,4.862-4.275,9.601-3.322,14.08c0.951,4.489,3.917,8.379,8.818,11.568l21.873,14.208c4.034,2.625,7.961,3.843,11.714,3.686
			c-4.994,17.529-5.87,36.504-1.719,55.559c13.441,61.671,74.333,100.774,136.008,87.334
			c61.671-13.438,100.775-74.332,87.335-136.006c-3.982-18.27-12.153-34.539-23.252-48.069c2.252-1.345,4.13-3.217,5.53-5.564
			c1.716-2.872,2.821-7.103,3.689-14.16c0.484-3.926,0.931-9.164,1.329-15.613c0.196-3.401,0.404-6.821,0.622-10.258
			C270.124,58.9,269.759,55.882,268.68,53.195z"/>
		<g>
			<path fill="#FFFFFF" d="M77.583,109.928c1.97,1.277,2.995,2.913,3.078,4.9c0.066,1.775-0.547,3.667-1.852,5.672l-7.223,11.113
				c-1.698,2.614-3.507,4.126-5.426,4.534c-1.919,0.408-4.222-0.261-6.906-2.004l-20.783-13.506
				c-2.649-1.722-4.178-3.541-4.586-5.46c-0.407-1.92,0.239-4.188,1.936-6.801l7.224-11.115c1.278-1.97,2.744-3.283,4.396-3.943
				c1.909-0.744,3.829-0.489,5.762,0.768c2.329,1.511,3.34,3.52,3.038,6.021c-0.216,1.744-1.21,3.976-2.977,6.697
				c-0.395,0.609-0.958,1.438-1.694,2.49c-0.73,1.049-1.227,1.771-1.482,2.164l1.074,0.698c0.372-0.571,0.75-1.153,1.134-1.743
				c0.383-0.591,0.756-1.202,1.115-1.834c1.512-2.329,2.958-3.885,4.332-4.671c1.871-1.075,3.898-0.903,6.083,0.514
				c1.719,1.118,2.682,2.457,2.89,4.017c0.248,1.893-0.675,4.449-2.769,7.672c-0.351,0.536-0.693,1.066-1.03,1.583
				c-0.337,0.52-0.674,1.001-1.013,1.441l1.075,0.699c0.673-1.037,1.238-1.945,1.691-2.72c0.454-0.774,0.881-1.515,1.288-2.218
				c2.257-3.474,4.358-5.493,6.305-6.062C73.947,108.353,75.722,108.717,77.583,109.928z M58.921,119.721
				c0.187-0.285,0.677-0.961,1.471-2.024c0.792-1.064,1.432-1.971,1.921-2.725c1.255-1.931,1.983-3.521,2.183-4.768
				c0.25-1.719-0.357-3.057-1.825-4.01c-1.467-0.953-2.935-0.965-4.404-0.036c-1.118,0.699-2.304,2.016-3.561,3.948
				c-0.442,0.681-0.902,1.45-1.385,2.307c-0.481,0.86-0.995,1.748-1.54,2.667l-4.619-3c0.442-0.681,0.832-1.243,1.169-1.686
				c1.739-2.28,2.757-3.655,3.061-4.121c1.489-2.291,2.369-4.19,2.634-5.697c0.366-2.053-0.292-3.626-1.975-4.72
				c-1.503-0.977-2.846-1.163-4.03-0.556c-1.183,0.604-2.298,1.715-3.344,3.325l-6.945,10.686c-1.444,2.222-2.053,4.002-1.83,5.345
				c0.225,1.341,1.463,2.742,3.719,4.208l20.782,13.505c2.187,1.417,3.969,1.965,5.349,1.641c1.384-0.321,2.783-1.577,4.201-3.761
				l6.945-10.688c1.046-1.609,1.604-2.979,1.673-4.105c0.078-1.527-0.636-2.782-2.139-3.757c-1.611-1.048-3.298-0.998-5.062,0.146
				c-1.351,0.905-2.747,2.468-4.19,4.688c-0.79,1.218-1.422,2.27-1.9,3.158c-0.472,0.887-1.036,1.911-1.685,3.065L58.921,119.721z
				 M70.831,115.621c0.697-1.074,1.286-1.787,1.769-2.136c0.833-0.579,1.715-0.564,2.646,0.041c0.896,0.581,1.277,1.25,1.143,2.001
				c-0.133,0.754-0.526,1.633-1.176,2.635l-7.19,11.061c-1.043,1.613-1.956,2.525-2.727,2.733c-0.775,0.211-1.949-0.193-3.525-1.218
				l-21.158-13.75c-1.574-1.022-2.433-1.936-2.57-2.741c-0.142-0.801,0.312-2.01,1.357-3.619l7.154-11.011
				c0.652-1.001,1.308-1.72,1.974-2.155c0.664-0.434,1.444-0.359,2.337,0.221c0.896,0.583,1.259,1.354,1.095,2.315
				c-0.135,0.677-0.539,1.534-1.214,2.571l-6.561,10.097l8.216,5.341l5.27-8.11c0.629-0.968,1.22-1.664,1.779-2.092
				c0.556-0.426,1.246-0.371,2.071,0.162c0.788,0.513,1.085,1.191,0.894,2.034c-0.113,0.487-0.494,1.231-1.145,2.232L56,120.341
				l8.271,5.375L70.831,115.621z"/>
			<path fill="#FFFFFF" d="M98.969,74.323c3.963,4.813,6.034,9.44,6.212,13.886c0.207,5.084-2.063,9.581-6.807,13.491
				c-4.712,3.883-9.543,5.236-14.496,4.06c-4.416-1.062-8.58-3.967-12.49-8.711l-9.162-11.121c-1.656-2.01-2.568-3.886-2.734-5.632
				c-0.19-2.111,0.687-3.967,2.632-5.57c2.272-1.875,4.626-2.207,7.056-1.001c1.854,0.908,4.016,2.86,6.487,5.856
				c1.005,1.22,1.804,2.224,2.394,3.009c2.394,3.172,3.659,4.841,3.794,5.006c1.658,2.011,3.075,3.345,4.252,4.004
				c1.181,0.66,2.363,0.501,3.551-0.477c1.186-0.977,1.52-2.249,1.004-3.815c-0.397-1.221-1.451-2.871-3.162-4.945
				c-0.841-1.023-2.112-2.479-3.809-4.372c-1.698-1.893-2.724-3.052-3.077-3.482c-2.335-2.834-3.729-5.197-4.184-7.091
				c-0.61-2.486,0.189-4.638,2.396-6.457c1.912-1.574,3.884-2.066,5.922-1.476c1.74,0.5,3.427,1.74,5.056,3.718L98.969,74.323z
				 M91.003,92.754c-1.813,1.494-3.72,1.765-5.721,0.814c-1.564-0.758-3.406-2.421-5.523-4.992
				c-0.733-0.891-1.809-2.298-3.232-4.224c-1.42-1.927-2.499-3.335-3.231-4.226c-1.847-2.24-3.466-3.702-4.856-4.381
				c-1.767-0.868-3.423-0.663-4.971,0.612c-1.452,1.194-2.05,2.547-1.802,4.058c0.189,1.17,0.936,2.547,2.239,4.127l8.868,10.866
				c3.64,4.416,7.32,7.137,11.042,8.164c4.432,1.216,8.825,0.032,13.172-3.552c4.316-3.557,6.316-7.61,5.997-12.16
				c-0.291-3.911-2.253-8.073-5.892-12.488l-8.969-10.783c-1.249-1.517-2.444-2.496-3.583-2.94c-1.463-0.565-2.919-0.251-4.37,0.943
				c-1.449,1.194-2.066,2.479-1.85,3.848c0.219,1.372,0.963,2.831,2.239,4.379l8.93,10.735c1.845,2.24,2.972,4.047,3.387,5.421
				C93.572,89.226,92.946,91.153,91.003,92.754z M95.412,76.755c3.259,3.956,5.062,7.587,5.409,10.896
				c0.404,3.982-1.321,7.56-5.177,10.738c-3.823,3.149-7.648,4.145-11.478,2.986c-3.243-0.979-6.479-3.431-9.709-7.352L65.537,83.2
				c-0.923-1.119-1.465-1.945-1.626-2.477c-0.323-1.063-0.022-1.973,0.901-2.734c0.922-0.759,1.998-0.761,3.23-0.006
				c0.915,0.573,2.147,1.798,3.694,3.676c0.869,1.055,1.586,1.96,2.151,2.71c2.202,2.943,3.466,4.611,3.791,5.007
				c2.636,3.195,4.954,5.27,6.953,6.22c2.699,1.262,5.284,0.874,7.756-1.162c2.503-2.063,3.383-4.557,2.633-7.479
				c-0.553-2.146-2.156-4.833-4.818-8.064c-1.062-1.285-1.932-2.309-2.616-3.072c-2.712-3.021-4.093-4.565-4.148-4.632
				c-1.385-1.68-2.281-3.07-2.69-4.171c-0.409-1.1-0.153-2.031,0.77-2.792c0.921-0.758,1.843-0.883,2.765-0.37
				c0.605,0.332,1.342,1.025,2.21,2.079L95.412,76.755z"/>
			<path fill="#FFFFFF" d="M141.064,70.771c0.719,1.829,0.707,3.62-0.023,5.375c-0.735,1.756-2.016,2.991-3.845,3.708
				c-1.55,0.606-3.298,0.535-5.241-0.215c-0.651-0.25-3.279-1.924-7.887-5.026c1.043,2.666,1.45,4.868,1.216,6.61
				c-0.302,2.275-1.704,3.9-4.208,4.882c-2.307,0.905-4.336,0.761-6.087-0.434c-1.5-1.017-2.725-2.738-3.675-5.164l-9.232-23.551
				c-1.185-3.021-1.37-5.424-0.557-7.211c0.814-1.786,2.729-3.271,5.75-4.456l4.949-1.94c4.77-1.869,9.181-2.2,13.232-0.99
				c4.462,1.324,7.622,4.35,9.475,9.079c0.828,2.108,1.15,4.309,0.972,6.602c-0.178,2.296-0.814,4.504-1.907,6.629
				c2.47,1.507,3.805,2.338,4.003,2.489C139.545,68.296,140.566,69.5,141.064,70.771z M132.962,52.212
				c-1.589-4.055-4.307-6.659-8.149-7.811c-3.532-1.047-7.363-0.76-11.496,0.861l-5.246,2.056c-2.466,0.967-3.998,2.059-4.596,3.28
				c-0.599,1.222-0.408,3.083,0.574,5.589l9.232,23.55c0.749,1.909,1.585,3.23,2.519,3.966c1.214,0.994,2.716,1.136,4.502,0.436
				c1.869-0.732,2.875-2.022,3.026-3.869c0.094-1.274-0.294-3.024-1.165-5.251c-0.189-0.477-0.466-1.125-0.833-1.944
				c-0.366-0.819-0.611-1.388-0.738-1.705l1.611-0.631c2.083,1.569,4.186,3.129,6.307,4.681c3.551,2.276,6.202,3.073,7.951,2.386
				c1.231-0.482,2.094-1.325,2.587-2.526c0.491-1.202,0.487-2.439-0.012-3.711c-0.39-0.993-1.63-2.227-3.72-3.7
				c-2.321-1.475-3.761-2.399-4.322-2.777c1.464-1.765,2.371-3.806,2.724-6.123C134.073,56.649,133.82,54.396,132.962,52.212z
				 M119.508,82.112c-1.114,0.436-2.047,0.276-2.802-0.484c-0.458-0.462-0.943-1.35-1.458-2.661l-9.232-23.552
				c-0.731-1.869-0.921-3.169-0.568-3.905c0.354-0.734,1.485-1.478,3.393-2.225l5.187-2.035c3.616-1.417,6.913-1.723,9.888-0.919
				c3.333,0.896,5.692,3.113,7.079,6.651c0.873,2.226,1.008,4.444,0.405,6.649c-0.601,2.21-1.817,4.199-3.646,5.97
				c2.331,1.381,3.902,2.346,4.715,2.899c2.771,1.804,4.304,3.083,4.6,3.839c0.265,0.675,0.281,1.357,0.045,2.044
				c-0.235,0.688-0.69,1.165-1.367,1.43c-1.154,0.452-3.627-0.595-7.422-3.145c-1.981-1.423-3.941-2.856-5.88-4.297l-4.653,1.823
				c0.158,0.397,0.5,1.124,1.029,2.179c0.525,1.055,0.923,1.919,1.188,2.594c0.686,1.75,1.043,3.193,1.076,4.326
				C121.107,80.75,120.582,81.69,119.508,82.112z M116.087,65.842l5.249-2.057c2.027-0.795,3.501-1.98,4.418-3.555
				c0.918-1.574,0.989-3.357,0.211-5.345c-0.844-2.146-2.149-3.458-3.917-3.934c-1.768-0.475-3.765-0.276-5.991,0.596l-4.829,1.893
				L116.087,65.842z M113.966,54.638l2.862-1.124c1.67-0.654,3.05-0.873,4.142-0.662c1.394,0.281,2.403,1.216,3.026,2.805
				c0.592,1.512,0.463,2.822-0.384,3.934c-0.695,0.917-1.841,1.685-3.43,2.308l-2.92,1.145L113.966,54.638z M119.412,59.931
				c1.074-0.422,1.809-0.824,2.208-1.209c0.63-0.614,0.767-1.377,0.41-2.292c-0.359-0.916-0.916-1.396-1.668-1.446
				c-0.754-0.048-1.666,0.137-2.739,0.559l-0.894,0.35l1.729,4.412L119.412,59.931z"/>
			<path fill="#FFFFFF" d="M177.217,66.896c0.196,2.34-0.469,4.152-1.989,5.437c-1.36,1.141-3.234,1.812-5.615,2.01l-13.211,1.101
				c-3.106,0.259-5.409-0.243-6.906-1.512c-1.499-1.266-2.381-3.497-2.646-6.688l-2.061-24.699c-0.264-3.148,0.24-5.471,1.508-6.97
				c1.266-1.497,3.452-2.376,6.56-2.634l13.211-1.103c2.339-0.195,4.276,0.159,5.808,1.06c1.759,1.052,2.733,2.727,2.927,5.025
				c0.23,2.766-0.737,4.795-2.899,6.09c-1.511,0.896-3.883,1.479-7.115,1.749c-0.724,0.061-1.725,0.125-3.004,0.187
				c-1.28,0.065-2.155,0.116-2.623,0.154l0.104,1.276c0.683-0.057,1.374-0.114,2.076-0.173c0.701-0.058,1.411-0.138,2.132-0.241
				c2.765-0.231,4.88-0.042,6.345,0.563c1.997,0.819,3.104,2.526,3.319,5.122c0.172,2.041-0.298,3.623-1.403,4.744
				c-1.345,1.355-3.931,2.191-7.76,2.51c-0.64,0.053-1.267,0.106-1.883,0.157c-0.618,0.052-1.204,0.08-1.761,0.083l0.107,1.276
				c1.232-0.102,2.296-0.212,3.186-0.33c0.89-0.116,1.736-0.23,2.541-0.34c4.126-0.344,7.011,0.079,8.655,1.271
				C176.232,63.058,177.032,64.685,177.217,66.896z M158.044,58.148c0.34-0.028,1.173-0.054,2.499-0.08
				c1.326-0.023,2.437-0.074,3.331-0.147c2.297-0.193,3.998-0.592,5.105-1.198c1.514-0.854,2.197-2.153,2.052-3.898
				c-0.146-1.743-1.038-2.911-2.672-3.504c-1.236-0.453-3.003-0.584-5.301-0.394c-0.81,0.067-1.699,0.175-2.673,0.318
				c-0.975,0.146-1.991,0.285-3.051,0.416l-0.456-5.489c0.808-0.067,1.489-0.102,2.048-0.106c2.866-0.024,4.577-0.061,5.13-0.107
				c2.724-0.227,4.763-0.695,6.117-1.409c1.847-0.968,2.688-2.452,2.521-4.452c-0.148-1.787-0.825-2.962-2.028-3.526
				c-1.204-0.563-2.764-0.765-4.677-0.606l-12.702,1.06c-2.639,0.219-4.418,0.83-5.342,1.827c-0.923,0.999-1.274,2.838-1.05,5.518
				l2.059,24.698c0.218,2.596,0.878,4.34,1.979,5.235c1.104,0.894,2.951,1.231,5.546,1.015l12.702-1.06
				c1.915-0.16,3.336-0.556,4.271-1.191c1.253-0.877,1.806-2.207,1.656-3.994c-0.157-1.916-1.23-3.217-3.216-3.91
				c-1.545-0.515-3.635-0.659-6.271-0.441c-1.446,0.123-2.667,0.267-3.658,0.434c-0.994,0.169-2.147,0.351-3.458,0.546
				L158.044,58.148z M168.579,65.046c1.277-0.107,2.201-0.076,2.773,0.09c0.964,0.305,1.496,1.01,1.589,2.117
				c0.088,1.064-0.205,1.774-0.884,2.13c-0.676,0.357-1.612,0.583-2.804,0.682l-13.146,1.099c-1.915,0.158-3.192-0.002-3.832-0.485
				c-0.64-0.482-1.036-1.658-1.192-3.532l-2.098-25.145c-0.156-1.873,0.039-3.11,0.588-3.712s1.784-0.985,3.699-1.145l13.082-1.09
				c1.19-0.099,2.161-0.02,2.912,0.239c0.75,0.259,1.169,0.922,1.258,1.985c0.089,1.064-0.299,1.823-1.159,2.282
				c-0.618,0.309-1.545,0.513-2.777,0.616l-11.997,1l0.813,9.766l9.638-0.803c1.148-0.096,2.062-0.054,2.74,0.125
				c0.681,0.179,1.06,0.759,1.142,1.737c0.077,0.935-0.275,1.586-1.059,1.951c-0.454,0.21-1.276,0.363-2.468,0.463l-9.637,0.803
				l0.819,9.83L168.579,65.046z"/>
			<path fill="#FFFFFF" d="M214.431,37.277c1.878,0.405,3.339,1.419,4.389,3.042c1.046,1.623,1.368,3.373,0.963,5.252
				c-0.43,2.003-2.473,4.271-6.118,6.804c-4.072,2.488-6.54,4.006-7.402,4.563c1.764,2.565,3.546,5.132,5.35,7.705
				c2.684,4.376,3.794,7.629,3.335,9.759c-0.413,1.919-1.427,3.417-3.033,4.488c-1.606,1.074-3.369,1.404-5.289,0.989
				c-2.423-0.521-5.064-3.253-7.929-8.194c-1.014-1.791-2-3.596-2.961-5.42c-0.745,3.464-1.559,5.823-2.439,7.075
				c-1.506,2.121-3.742,2.861-6.704,2.223c-2.379-0.512-3.955-1.66-4.729-3.443c-0.774-1.781-0.9-3.882-0.378-6.304l5.56-25.794
				c0.512-2.377,1.447-4.186,2.807-5.421c1.568-1.408,3.523-1.862,5.86-1.358c2.669,0.575,4.335,1.961,5,4.157
				c0.475,1.631,0.407,3.885-0.213,6.768c2.115-1.51,4.23-3.02,6.346-4.529C210.023,37.661,212.552,36.872,214.431,37.277z
				 M195.266,35.31c-1.838-0.397-3.225-0.085-4.166,0.935c-0.939,1.02-1.624,2.513-2.045,4.474l-5.49,25.479
				c-0.404,1.879-0.404,3.386,0.007,4.524c0.517,1.464,1.669,2.389,3.464,2.777c1.921,0.414,3.461-0.15,4.622-1.69
				c0.915-1.201,1.622-2.97,2.127-5.308c0.172-0.792,0.335-1.695,0.485-2.712c0.153-1.014,0.332-2.09,0.533-3.226
				c2.176,3.875,4.376,7.756,6.6,11.642c2.314,3.426,4.248,5.305,5.792,5.638c1.335,0.288,2.545,0.047,3.63-0.725
				c1.084-0.771,1.769-1.823,2.054-3.159c0.379-1.753-1.02-5.091-4.197-10.011c-3.379-4.79-5.149-7.312-5.313-7.566
				c3.187-2.02,6.38-4.062,9.576-6.126c2.87-2.175,4.44-3.891,4.71-5.143c0.281-1.292,0.07-2.506-0.623-3.639
				c-0.695-1.132-1.69-1.838-2.984-2.117c-1.794-0.387-4.975,1.002-9.544,4.167c-2.408,1.839-4.809,3.659-7.202,5.457
				c0.131-0.626,0.372-1.58,0.712-2.858c0.342-1.28,0.526-1.984,0.552-2.109c0.487-2.253,0.567-4.048,0.244-5.384
				C198.366,36.829,197.184,35.722,195.266,35.31z M213.539,41.408c0.503,0.108,0.978,0.431,1.43,0.963
				c0.28,0.322,0.457,0.624,0.527,0.9l0.105,1.333c-0.827,1.612-3.245,3.713-7.253,6.299c-2.661,1.611-5.305,3.225-7.923,4.846
				c1.953,2.69,3.796,5.38,5.533,8.069c3.469,5.378,5.085,8.631,4.841,9.757c-0.169,0.793-0.554,1.399-1.145,1.816
				c-0.595,0.419-1.286,0.542-2.078,0.373c-0.959-0.208-2.558-2.016-4.793-5.424c-1.549-2.34-3.452-5.569-5.71-9.681
				c-1.067-1.934-2.132-3.888-3.191-5.863l-2.752,12.772c-0.288,1.336-0.625,2.29-1.011,2.861c-0.581,0.88-1.457,1.193-2.626,0.941
				c-1.126-0.243-1.787-0.779-1.979-1.606c-0.194-0.828-0.154-1.869,0.116-3.119l5.531-25.669c0.27-1.252,0.663-2.225,1.184-2.922
				c0.523-0.696,1.347-0.92,2.473-0.679c1.169,0.252,1.839,0.898,2.009,1.938c0.113,0.68,0.027,1.689-0.258,3.024l-2.483,11.519
				c3.507-2.691,6.576-4.98,9.207-6.858C208.355,43.371,211.77,41.507,213.539,41.408z"/>
			<path fill="#FFFFFF" d="M230.834,80.91c-3.145,2.101-5.054,3.299-5.727,3.592c-2.333,0.993-4.472,0.91-6.413-0.251
				c-1.649-0.985-2.728-2.411-3.227-4.277c-0.504-1.865-0.271-3.604,0.692-5.218c0.873-1.466,3.436-3.716,7.685-6.749
				c3.112-2.218,7.092-4.839,11.935-7.866c2.852-1.777,5.704-3.554,8.555-5.334c1.329-0.895,2.729-1.426,4.197-1.594
				c1.47-0.167,2.844,0.13,4.126,0.897c1.432,0.856,2.396,1.902,2.896,3.146c0.499,1.244,0.645,2.75,0.439,4.515
				c-0.216,3.353-0.418,6.689-0.608,10.005c-0.369,5.947-0.772,10.705-1.211,14.27c-0.635,5.141-1.41,8.483-2.33,10.022
				c-0.964,1.613-2.387,2.641-4.265,3.083c-1.882,0.445-3.647,0.173-5.299-0.813c-1.977-1.182-3.076-3.007-3.294-5.474
				c-0.061-0.732,0.102-2.999,0.479-6.799L230.834,80.91z M243.363,96.525c1.103,0.657,2.317,0.85,3.648,0.575
				c1.333-0.273,2.336-0.977,3.019-2.114c0.7-1.173,1.347-4.342,1.946-9.504c0.459-4.102,0.884-8.897,1.276-14.381
				c0.198-3.163,0.409-6.344,0.628-9.546c0.099-1.333,0.017-2.401-0.249-3.206c-0.347-1.002-1.032-1.811-2.059-2.423
				c-0.987-0.59-1.979-0.809-2.967-0.654c-0.987,0.156-1.925,0.543-2.813,1.155c-0.89,0.614-3.674,2.38-8.355,5.304
				c-5.382,3.351-9.365,5.944-11.956,7.778c-4.285,3.012-6.788,5.123-7.509,6.333c-0.679,1.136-0.842,2.345-0.486,3.627
				c0.354,1.279,1.117,2.269,2.291,2.968c1.174,0.701,2.615,0.743,4.325,0.124c0.631-0.221,2.831-1.616,6.604-4.186l10.995,6.567
				c-0.23,2.051-0.459,4.101-0.689,6.152C241.005,93.772,241.787,95.583,243.363,96.525z M230.637,75.869
				c-1.94,1.329-3.858,2.67-5.757,4.021c-1.815,0.957-3.146,1.182-3.985,0.678c-0.626-0.373-1.058-0.917-1.3-1.633
				c-0.245-0.717-0.181-1.389,0.193-2.012c0.414-0.696,2.742-2.512,6.984-5.451c3.391-2.351,7.444-5.051,12.154-8.107
				c2.594-1.682,5.21-3.353,7.844-5.014c0.687-0.484,1.26-0.787,1.729-0.904c0.705-0.178,1.369-0.08,1.991,0.292
				c0.584,0.35,0.979,0.858,1.179,1.526c0.153,0.488,0.182,1.191,0.084,2.103c-0.096,0.911-0.359,3.975-0.785,9.189
				c-0.617,7.44-1.046,12.281-1.29,14.522c-0.561,5.186-1.049,8.126-1.466,8.823c-0.371,0.624-0.93,0.998-1.678,1.123
				c-0.747,0.128-1.45-0.008-2.109-0.402c-0.988-0.589-1.378-2.438-1.163-5.542c0.41-3.186,0.636-4.942,0.679-5.264L230.637,75.869z
				 M244.48,78.169l1.247-12.458l-10.375,7.008L244.48,78.169z M243.167,70.002l-0.462,4.646l-3.409-2.036L243.167,70.002z"/>
		</g>
	</g>
	<g>
		
			<radialGradient id="SVGID_1_" cx="9642.0488" cy="-16221.6055" r="1399.0209" gradientTransform="matrix(0.1224 0.1037 -0.1037 0.1224 -2612.8796 1073.6334)" gradientUnits="userSpaceOnUse">
			<stop  offset="0.3005" style="stop-color:#FFFFFF"/>
			<stop  offset="0.6667" style="stop-color:#A2DCED"/>
			<stop  offset="0.8962" style="stop-color:#00A4C7"/>
			<stop  offset="1" style="stop-color:#0A60AB"/>
		</radialGradient>
		<path fill="url(#SVGID_1_)" d="M240.793,104.758c-42.026-35.639-104.989-30.467-140.631,11.558
			c-35.641,42.026-30.464,104.987,11.56,140.628c42.027,35.645,104.988,30.466,140.629-11.559S282.817,140.401,240.793,104.758z"/>
		
			<radialGradient id="SVGID_2_" cx="9965.5449" cy="-16083.6406" r="1316.9551" fx="10223.4746" fy="-15721.1357" gradientTransform="matrix(0.1224 0.1037 -0.1037 0.1224 -2612.8796 1073.6334)" gradientUnits="userSpaceOnUse">
			<stop  offset="0.3005" style="stop-color:#FFFFFF"/>
			<stop  offset="0.6667" style="stop-color:#A2DCED"/>
			<stop  offset="0.9617" style="stop-color:#3FBCD6"/>
			<stop  offset="1" style="stop-color:#246F85"/>
		</radialGradient>
		<path fill="url(#SVGID_2_)" d="M240.604,104.98c-41.901-35.539-104.681-30.379-140.22,11.524
			c-35.538,41.902-30.379,104.682,11.525,140.224c41.906,35.538,104.684,30.376,140.221-11.528
			C287.668,203.298,282.509,140.519,240.604,104.98z M113.471,254.886c-40.888-34.677-45.92-95.936-11.245-136.821
			c34.674-40.885,95.93-45.919,136.817-11.244c40.886,34.676,45.921,95.933,11.243,136.816
			C215.614,284.523,154.357,289.561,113.471,254.886z"/>
		<path fill="#FFFFFF" d="M247.1,240.934c-33.183,39.125-91.799,43.943-130.925,10.761c-39.125-33.182-43.941-91.799-10.76-130.924
			c33.182-39.123,91.797-43.943,130.925-10.76C275.462,143.191,280.282,201.809,247.1,240.934z"/>
		<g>
			<g>
				<g>
					
						<radialGradient id="SVGID_3_" cx="148.4761" cy="47.3867" r="39.0226" fx="140.0247" fy="50.2273" gradientTransform="matrix(3.4077 -0.5094 0.5094 3.4077 -330.1407 97.283)" gradientUnits="userSpaceOnUse">
						<stop  offset="0" style="stop-color:#FFFFFF"/>
						<stop  offset="0.1341" style="stop-color:#F7FBFE"/>
						<stop  offset="0.2968" style="stop-color:#E7F3FC"/>
						<stop  offset="0.4744" style="stop-color:#CEE7F8"/>
						<stop  offset="0.6625" style="stop-color:#A9D8F4"/>
						<stop  offset="0.8569" style="stop-color:#78C7F0"/>
						<stop  offset="1" style="stop-color:#43BBEC"/>
					</radialGradient>
					<path fill="url(#SVGID_3_)" d="M272.88,166.41c7.978,53.361-28.816,103.09-82.179,111.066
						c-53.365,7.977-103.09-28.817-111.067-82.178c-7.978-53.366,28.813-103.092,82.177-111.07
						C215.174,76.251,264.902,113.044,272.88,166.41z"/>
				</g>
			</g>
			<g>
				
					<radialGradient id="SVGID_4_" cx="132.6216" cy="44.894" r="29.6012" fx="132.6225" fy="67.5893" gradientTransform="matrix(3.3007 -0.4934 0.5036 3.3689 -282.8586 98.0621)" gradientUnits="userSpaceOnUse">
					<stop  offset="0" style="stop-color:#96DAF8"/>
					<stop  offset="0.4718" style="stop-color:#5ECCF5"/>
					<stop  offset="0.9892" style="stop-color:#2580C3"/>
				</radialGradient>
				<path fill="url(#SVGID_4_)" d="M103.628,115.9c0.022-0.015,0.042-0.026,0.058-0.037c0.019-0.028,0.041-0.047,0.059-0.07
					C103.708,115.831,103.66,115.861,103.628,115.9z"/>
				
					<radialGradient id="SVGID_5_" cx="144.9038" cy="17.937" r="0.0058" fx="144.9024" fy="17.9426" gradientTransform="matrix(3.3007 -0.4934 0.5036 3.3689 -282.8586 98.0621)" gradientUnits="userSpaceOnUse">
					<stop  offset="0" style="stop-color:#96DAF8"/>
					<stop  offset="0.4718" style="stop-color:#5ECCF5"/>
					<stop  offset="0.9892" style="stop-color:#2580C3"/>
				</radialGradient>
				<path fill="url(#SVGID_5_)" d="M204.488,86.991c-0.021-0.005-0.04-0.006-0.054-0.009c0.012,0.003,0.021,0.005,0.029,0.009
					C204.472,86.989,204.478,86.993,204.488,86.991z"/>
				
					<radialGradient id="SVGID_6_" cx="132.436" cy="44.168" r="28.9251" fx="132.437" fy="66.3448" gradientTransform="matrix(3.3007 -0.4934 0.5036 3.3689 -282.8586 98.0621)" gradientUnits="userSpaceOnUse">
					<stop  offset="0" style="stop-color:#96DAF8"/>
					<stop  offset="0.4718" style="stop-color:#5ECCF5"/>
					<stop  offset="0.9892" style="stop-color:#2580C3"/>
				</radialGradient>
				<path fill="url(#SVGID_6_)" d="M269.523,198.478c-0.121,0.371-0.03,1.094-0.16,1.378c-0.348,0.903-1.095,2.878-1.626,3.753
					c-0.695,1.07-1.533,1.38-1.658,3.566c0.018,0.718,0.264,1.569,0.226,2.039c-0.031,0.081-0.616,2.188-0.616,2.188
					c-0.075,0.042-0.54,0.949-0.56,1.125c-0.068,0.646-0.113,1.311,0.146,1.497c-0.022,0.31-0.062,0.544-0.155,1.06
					c-0.099,1.111,0.276,1.895,0.832,1.517c1.377-0.996,1.836-3.666,2.396-5.805c0.694-2.646,1.285-4.943,1.493-8.08
					c0.082-0.004,0.087-0.048,0.316,0.005c-0.023-0.217,0.04-0.416,0.037-0.633C270.067,201.072,270.26,198.319,269.523,198.478z"/>
				
					<radialGradient id="SVGID_7_" cx="132.4355" cy="44.168" r="28.9255" fx="132.4365" fy="66.3452" gradientTransform="matrix(3.3007 -0.4934 0.5036 3.3689 -282.8586 98.0621)" gradientUnits="userSpaceOnUse">
					<stop  offset="0" style="stop-color:#96DAF8"/>
					<stop  offset="0.4718" style="stop-color:#5ECCF5"/>
					<stop  offset="0.9892" style="stop-color:#2580C3"/>
				</radialGradient>
				<path fill="url(#SVGID_7_)" d="M270.006,156.653c0.016,0.002,0.021-0.004,0.033-0.006c-0.764-2.964-1.654-5.87-2.665-8.709
					c-0.143,0.958,0.012,2.156-1.161,2.055c-0.668-0.032-0.969-0.378-1.097-0.98c-0.172-0.483-0.075-0.835-0.208-1.343
					c-0.056-0.148-0.146-0.309-0.148-0.471c-0.447,0.032,0.272,0.515-0.234,0.718c-0.137-0.362-0.285-0.535-0.418-0.999
					c-0.651-0.294-1.75-2.178-2.194-3.221c-0.14-0.328-0.229-0.519-0.333-0.985c-0.192-0.609-0.229-1.317,0.076-1.28
					c0.705,0.173,1.532,1.495,2.058,2.438c0.068,0.178,0.136,0.517,0.323,0.768c0.363,0.548,0.625,0.294,1.027,0.839
					c0.304,0.438,0.629,0.991,1,1.273c0.713,0.21,0.659,0.085,0.923,0.177c0.004-0.01,0.002-0.015,0.004-0.026
					c-1.589-4.305-3.455-8.452-5.58-12.426c-0.067-0.026-0.143-0.058-0.277-0.087c-0.544-0.172-0.723-0.181-1.066-0.529
					c-0.177-0.329-0.281-0.599-0.638-0.811c-0.444-0.201-0.692-0.476-0.926-0.889c-0.278-0.366-0.188-0.575-0.487-1.006
					c-0.226-0.267-0.358-0.282-0.511-0.604c0.176,0.11,0.155,0.103,0.355,0.155c0.174-0.733-0.609-0.933,0.075-1.236
					c-0.764-0.662-2.487-2.699-2.932-3.711c-0.073-0.328-0.829-0.893-1.037-1.333c-0.025-0.168-0.062-0.872-0.014-1.171
					c0.114,0.087,0.294,0.046,0.451-0.003c-8.377-11.631-19.124-21.242-31.399-28.187c-0.32,0.018-0.505,0.097-1.17-0.016
					c0.068-0.364,0.725,0.073,0.605-0.227c-0.202-0.21-1.475-0.217-2.155-0.339c-0.434-0.147-0.754-0.224-1.049-0.388
					c-0.188,0.065-0.826-0.087-0.8,0.026c0.091,0.13,0.358,0.17,0.76,0.288c-0.75-0.027-1.525-0.238-1.925,0.007
					c-0.036-0.12-0.093-0.118-0.134-0.237c-0.919-0.095-0.905,0.142-1.483,0.111c-0.03-0.084-0.068-0.087-0.096-0.172
					c-0.718-0.063-1.549-0.179-1.933-0.113c0.136,0.06,0.299,0.136,0.442,0.162c-0.359,0.054-1.258-0.052-1.527-0.127
					c-0.442-0.047-0.601-0.005-0.852,0.156c0.399,0.026,0.387,0.02,0.702,0.111c-0.083-0.033-0.431,0.189-0.652,0.174
					c-0.573-0.036-0.192-0.072-0.918-0.143c0.08-0.208-0.053,0.02-0.352-0.101c-0.156,0.072-0.132,0.104-0.29,0.178
					c-0.132,0.019-0.236-0.077-0.375-0.079c-0.354-0.018-0.508-0.061-0.529,0.213c0,0-0.235,0.105-0.015,0.154
					c-0.189-0.005-0.454,0.094-0.709,0.223c1.078,0.155,2.364,0.097,3.432,0.146c0.013,0.583-0.97,0.791-1.85,0.895
					c-0.85,0.071-1.362,0.267-1.792,0.617c0.027,0.019-0.266,0.411-0.266,0.411c-0.358-0.001-0.07,0.61-0.519,0.723
					c-1.198,0.438-1.847,0.81-3.927,1.012c0.438,0.089,0.673,0.064,1.199,0.17c-1.734-0.152-1.601,0.33-2.46,0.463
					c-1.006,0.074-1.471,0.363-1.956,0.72c-0.265,0.236-0.653,0.359-0.558,0.675c0.196,0.679,1.08,1.55,1.954,1.959
					c-0.18,0.224-0.672,0.421-0.614,0.59c0.39-0.002,0.828-0.045,1.264-0.125c0.044,0.125,0.063,0.214,0.107,0.335
					c-0.176,0.064-0.784,0.146-0.745,0.348c0.072,0.07,2.145,0.58,2.452,0.618c2.147-0.08,3.669-0.701,4.48-1.343
					c0.343,0.157,0.567,0.381,1.133,0.549c-0.117,0.059-0.152,0.185-0.121,0.31c0.125,0.413,0.875,0.519,1.248,0.845
					c0.479,0.533,0.521,0.833,1.462,1.229c0.023,0.087-0.033,0.137-0.012,0.221c0,0.13,0.885,1.311,1.278,1.343
					c1.182,0.039,0.965-1.047,1.776-1.015c0.357-0.011,1.071,0.106,1.73,0.141c-0.037-0.51,1.058-0.464,0.96-0.995
					c-0.257-0.081-0.701-0.146-0.82-0.415c-0.189-0.486-0.663-1.372,0.24-1.273c0.463-0.037,1.513-0.389,1.433-0.699
					c-0.175-0.408-0.567-0.953-1.429-1.089c-0.044-0.175-0.269-0.313-0.499-0.398c-0.274-0.209-0.61-0.453-0.947-0.638
					c0.638-0.114,0.005-0.465,0.227-0.747c0.279-0.302,0.868-0.4,1.53-0.484c0.807-0.153,2.461-0.486,2.282-0.906
					c0.157-0.123-0.063-0.148-0.216-0.421c-0.229-0.598,0.553-0.767,1.893-0.545c1.035,0.157,2.302,0.529,2.56,0.938
					c0.177,0.403-1.153,0.692-1.639,0.75c-0.923,0.138-0.299,0.78-2.059,0.522c0.079,0.188,0.254,0.787,0.323,0.956
					c0.144,0.245,0.315,0.511,0.785,0.657c-0.174,0.051-0.464,0.112-0.382,0.362c0.2,0.497,1.24,0.823,2.111,0.923
					c0.134,0.248,0.3,0.325,0.842,0.364c0.718,0.09,1.221,0.283,1.99,0.288c0.784,0.223,1.48,0.118,1.665-0.233
					c0.478,0.253,1.997,0.542,2.511,0.955c-0.566,0.047-0.522,0.507-1.033,0.463c-0.632-0.156-2.165-0.69-3.088-0.811
					c-0.843-0.108-2.945,0.512-2.201,0.948c0.938,0.392,1.159-0.173,2.187,0.605c0.771,0.565,0.193,0.993-0.138,0.928
					c-0.871-0.072-1.149-0.633-1.892-0.727c-0.706-0.073-0.897,1.223-0.69,1.794c0.321,0.879-1.277,0.454-1.113,1.233
					c-0.456-0.001-1.038-0.011-1.578-0.053c0.055-0.097,0.032-0.145,0.086-0.244c-0.311-0.079-0.977-0.167-1.572-0.183
					c-0.544-0.037-1.154,0.337-1.534,0.355c-0.677,0.198-1.126-0.13-1.896,0.077c-0.226,0.086-0.218,0.249-0.728,0.21
					c0,0-0.914-0.331-0.934-0.387c-0.041-0.074,0.215-0.129,0.188-0.277c-1.09-0.086-1.815,0.506-3.146,0.461
					c-0.135,0.005-1.704-1.135-1.826-1.239c-0.397,0.007,0.714,0.814,0.171,0.81c-0.054-0.092-0.065-0.186-0.098-0.292
					c-0.263,0.007-0.565-0.218-0.687-0.469c-0.116-0.503,0.355-0.71,0.771-0.947c0.142-0.071,0.502-0.104,0.496-0.247
					c-0.062-0.035-0.026-0.142-0.063-0.207c-0.358,0.042-0.943-0.009-1.02-0.287c-0.108-0.262-0.108-0.341,0.071-0.652
					c-0.03-0.109-0.068-0.189-0.103-0.303c-1.102,0.419-2.911,0.457-2.618,1.579c0.191,0.659,1.035,0.791,1.477,1.537
					c0.028-0.006,0.521,0.518,0.553,0.657c0.048,0.22-0.668,0.454-0.958,0.462c-0.444,0.009-0.912-0.055-1.198,0.101
					c-0.099,0.015-0.257,0.197-0.397,0.136c-0.313,0.084-0.052,0.01-0.709,0.01c-1.171,0.001-2.697,1.231-3.313,1.733
					c-0.045,0.028-0.435,0.247-0.424,0.384c0.106,0.385,0.389,0.784,0.021,1.071c-0.162,0.156-2.157,0.808-2.454,0.881
					c-0.22,0.039-0.465,0.088-0.729,0.11c-0.086,0.882,0.444,1.103-1.177,1.218c-0.05,0.276-0.348,0.539-0.796,0.579
					c-0.641-0.004-1.22-0.091-1.733-0.336c-0.137,0.05-0.392,0.046-0.541,0.042c0,0.086,0.033,0.194,0.063,0.279
					c0.063,0.09,0.042,0.647,0.44,0.677c-0.002,0.078,0.03,0.172,0.053,0.248c-0.156,0.1-0.778,0.261-1.219,0.271
					c-0.357,0.055-1.38-0.073-1.562-0.229c-0.547,0.123-1.998,0.481-1.963,0.818c0.018,0.042,0.071,0.092,0.091,0.134
					c0.162,0.512,2.587,0.625,3.531,0.725c0.224,0.007,0.368,0.179,0.713,0.199c0.159,0.524,1.114,1.882,2.256,1.794
					c0.066,0.261,0.395,0.167,0.462,0.521c0.023,0.132-0.051,0.414-0.106,0.568c0.038-0.004,0.071-0.039,0.099-0.066
					c0.047,0.198,0.255,0.882,0.282,1.014c0.179,0.718-0.813,0.74-0.666,1.52c-0.138,0.007-0.967,0.261-1.354,0.308
					c-0.535,0.021-0.955-0.171-1.601-0.009c-0.908,0.118-1.761,0.149-2.693,0.259c-0.224-0.003-0.801-0.042-1.009-0.136
					c-0.87,0.118-1.674,0.18-2.55,0.267c-0.256,0.105-0.699-0.057-0.88-0.059c-0.262,0.058-2.085,1.085-2.088,1.284
					c0.04,0.303,0.774,0.789,0.903,1.397c0.191,0.983-0.135,2.095,0.031,3.08c0.041,0.233-0.526,0.428-0.469,0.99
					c0.062,0.259,0.55,0.532,1.026,0.449c0.131,0.909,0.299,1.593,0.439,2.448c0.031,0.123,0.156,0.442,0.542,0.356
					c0.857-0.065,1.431-0.524,2.422-0.651c1.338-0.073,1.727,1.7,2.608,1.663c1.292-0.241,1.787-1.227,3.195-1.402
					c0.217-0.031,1.194-0.343,1.744-0.291c0.013-0.001,0.004-0.051-0.013-0.048c1.205,0.182,1.035-1.039,1.668-1.468
					c1.089-0.654,1.185-1.727,1.757-2.577c-0.231-0.059-0.61-0.195-0.668-0.459c-0.13-0.867,1.084-2.535,2.045-2.801
					c1.134-0.318,2.231-0.648,2.399-1.413c-0.157-0.208-0.377-0.576-0.514-0.805c-0.125-0.589,0.619-0.978,1.458-1.037
					c1.053-0.034,0.871,0.376,2.063,0.289c1.193-0.083,1.669-0.728,2.605-1.142c0.385-0.152,0.34-0.647,1.298-0.684
					c1.972-0.072,3.396,0.856,3.791,2.206c0.125,0.22,0.973,0.366,1.393,0.618c1.016,0.61,1.41,0.887,3.082,1.124
					c0.059,0.192,0.856,0.348,1.039,0.348c0.116,0.162,2.869,1.957,2.998,1.991c0.192,0.245,0.593,0.498,0.759,1.023
					c0.086,0.392,0.046,1.009-0.562,1.035c0.006,0.133,0.275,0.229,0.603,0.245c0.686-0.061,0.501-0.831,0.821-1.188
					c0,0,0.316-0.384,0.305-0.553c-0.132-0.5-0.508-0.227-0.638-0.716c-0.098-0.32-0.216-0.895,0.377-0.937
					c0.581,0.008,0.929,0.458,1.675,0.527c-0.074-0.801-1.586-1.315-2.652-1.706c-0.276-0.091-1.487-0.276-1.45-0.709
					c0.003-0.093,0.013-0.199,0.016-0.289c-0.728,0.058-1.146,0.188-1.974-0.043c-0.345-0.149-1.085-1.023-1.431-1.516
					c-0.179-0.274-0.78-0.909-1.587-1.082c-0.686-0.102-1.148-0.335-1.296-0.869c-0.07-0.188-0.036-0.431,0.024-0.644
					c-0.088-0.001-0.319-0.141-0.311-0.208c-0.145-0.334,0.942-0.395,1.466-0.655c0.267,0.199,0.257,0.944,0.904,0.937
					c0.495,0.045,0.978-0.002,1.467-0.013c0.253,0.836,2.147,2.269,3.229,2.299c0.192,0.078,0.455-0.026,0.665-0.001
					c0.147,0.464,0.896,0.575,1.641,0.78c0.717,0.31,1.909,1.011,2.111,1.497c0.043,0.286,0.193,0.61,0.264,0.931
					c0.196,0.75,0.025,0.824,0.708,1.277c0.503,0.341,0.94,0.663,1.292,1.163c0.01,0.066,0.207,0.391,0.385,0.399
					c0.251-0.027,0.521-0.005,0.776-0.001c-0.068,0.205-0.349,0.777-0.281,1.119c0.218,0.821,1.491,1.828,2.227,1.855
					c0.206-0.049,0.421,0.008,0.627,0c-0.545-0.265-0.233-0.829-0.296-1.081c-0.07-0.334-0.47-1.101-0.623-1.287
					c-0.014-0.089-0.069-0.202-0.081-0.289c0.22,0.172,0.92,0.992,1.466,1.116c0.02-0.003,0.073-0.008,0.084-0.008
					c0.066-0.299,0.316-0.641,0.524-0.764c-0.071-0.088-0.188-0.233-0.262-0.328c-0.358,0.011-1.821-0.924-1.837-1.023
					c-0.064-0.077,0.075-0.224,0.057-0.426c-0.292-0.244-0.681-0.562-1.072-0.8c-0.013-0.167,0.15-0.357,0.377-0.385
					c0.4,0.012,0.661,0.482,1.3,0.551c0.04-0.276-0.049-0.51-0.228-0.776c0.507-0.127,0.604-0.396,1.293-0.417
					c0.771,0.083,0.938,0.386,1.573,0.453c0.576-0.022,0.867,0.079,1.341-0.106c0.41-0.109,1.101-0.061,1.418-0.146
					c0.226-0.001,0.313,0.042,0.48-0.105c-0.365-0.334-1.571-0.834-1.805-1.543c-0.145-0.468,0.357-1.128,0.637-1.396
					c-0.085-0.275-0.203-0.572-0.292-0.859c0.029-0.242,0.129,0.061,0.097-0.442c-0.128-0.313,0.249-0.432,0.621-0.477
					c-0.117-0.123-0.095-0.359-0.212-0.49c0.82-0.168,0.44-1.306,1.305-1.225c0.314-0.006,1.344,0.663,2.395,0.881
					c0.179,0.005-0.627,0.332-0.48,0.453c0.749,0.673,1.519,1.341,1.83,1.395c0.551,0.056,1.927-0.376,2.073-0.601
					c-0.092-0.005-1.008-0.277-1.008-0.279c-0.179-0.008-0.661-0.157-0.77-0.557c-0.091-0.248,2.032-0.621,2.802-0.755
					c0,0-0.145,0.347-0.374,0.39c0.145,0.166,1.401,1.122-0.41,1.272c1.631,1.965,5.006,2.686,6.074,5.16
					c0.061-0.008,0.079-0.046,0.111,0.004c-0.379,0.127-0.626,0.55-1.229,0.437c-0.604-0.09-1.192-0.152-1.822-0.286
					c-0.425-0.055-1.727-0.45-1.911-0.878c-0.783-0.076-0.936-0.539-1.881-0.7c-0.685-0.045-1.579-0.139-2.015,0.072
					c-0.467,0.269-0.853,0.568-1.327,0.526c-0.421-0.011-0.783-0.058-1.205-0.089c-0.224-0.001-0.956-0.192-0.89,0.104
					c0.095,0.214,0.284,0.169,0.451,0.43c-0.619,0.236-4.337-0.492-4.095,0.595c0.034,0.199,0.504,0.155,0.77,0.205
					c-0.03,0.183,0.041,0.201,0.128,0.421c0.169,0.719-0.267,0.584-0.602,0.926c0.728,0.277,1.237,0.628,1.785,1.247
					c-0.243,0.432,1.133,1.161,1.454,1.438c-0.024,0.097-0.119,0.229-0.253,0.267c0.152,0.064,0.292,0.006,0.455,0.015
					c0.634-0.355,1.406,0.81,2.189,0.877c0.718-0.001,0.237-0.957,1.077-0.99c0.838,0.074,1.917,1.273,2.743,1.356
					c1.12,0.043,1.088-0.506,1.496-0.989c0.18,0.164,0.441,0.376,0.826,0.409c0.351,0.044,0.2-0.173,0.541-0.342
					c0.073,0.121,0.059,0.313,0.14,0.435c-0.071,0.104-0.209,0.179-0.107,0.418c0.113,0.552,0.489,1.147,0.749,1.906
					c0.291,0.999-0.297,1.202-0.29,2.101c0.078,0.902,0.037,1.372,0.108,2.396c-0.066,0.165-0.282,0.177-0.164,0.505
					c0.062,0.099,0.129,0.225,0.197,0.351c-0.013-0.025-0.029-0.053-0.044-0.075c-0.446,0.123-0.535,0.095-1.095,0.072
					c-0.883-0.006-1.739-0.454-2.487-0.469c-1.271,0.008-0.467,0.456-1.733,0.472c-1.487-0.021-3.491-0.687-5.019-1.236
					c-0.812-0.297-1.636,0.118-2.229-0.437c-0.225-0.217-0.738-0.427-0.95-1.102c-0.329-0.007-0.67,0.027-0.991,0.022
					c-0.054,0.002-0.131-0.048-0.162-0.093c-1.305,0.512-2.386,0.56-2.029,2.157c0.067,0.276,0.161,0.662,0.232,0.998
					c0.019,0.214-0.317,0.767-0.768,0.801c-3.515,0.105-6.282-3.025-9.687-2.891c-0.468,0.05-0.935,0.064-1.432,0.095
					c-0.989,0.055-2.543-0.962-2.865-2.233c-0.197-0.748,0.358-1.17,0.237-1.956c-0.085-0.378-0.814-0.618-0.928-1.061
					c-0.149-0.669,0.556-0.542,0.475-1.337c-0.25,0.109-0.437,0.323-0.701,0.345c-0.893,0.085-0.731-0.904-1.777-0.803
					c-1.003,0.021-0.847,0.776-1.931,0.881c-0.574,0.032-0.947-0.295-1.679-0.242c-0.803,0.051-1.479,0.87-2.089,0.913
					c-0.354,0.012-1.235-0.406-2.013-0.356c-2.505,0.202-5.765,1.613-7.831,2.835c-0.604,0.416-1.667,1.022-2.887,1.173
					c-1.969,0.22-2.69-0.008-4.332-0.814c-0.488,0.519-0.447,1.816-0.829,2.425c-0.226,0.186-0.566,0.437-0.879,0.659
					c-1.173,1.833-2.691,2.175-3.967,4.179c-0.556,0.932-0.405,2.674-0.12,3.429c-0.53,0.917-1.318,2.347-2.077,2.972
					c-0.993,0.689-2.875,1.603-3.597,2.834c-1.147,2.039-1.883,4.246-2.347,6.674c-0.185,0.91-1.423,1.86-1.276,2.989
					c0.371,2.413,1.922,3.883,2.341,6.492c0.208,1.464-0.426,4.38-1.596,5.248c0.533,0.815,1.757,1.692,1.896,2.541
					c0.067,0.385,0.422,0.939,0.569,1.827c-0.028-0.031-0.132,0.021-0.177,0.027c0.258,0.212,0.547,0.379,0.873,0.7
					c0.063,0.161,3.496,2.503,3.968,2.745c1.654,0.977,2.178,2.273,3.519,3.822c1.58,1.695,4.009,0.926,6.86,4.103
					c0.153,0.149,1.129,0.315,1.771,0.194c2.271-0.351,3.599-1.695,5.894-2.108c1.217-0.174,2.769,0.432,3.624,0.301
					c0.946-0.139,1.037-0.92,1.882-1.353c2.086-1.081,5.061-3.024,7.859-3.52c2.287-0.319,0.864,3.482,2.575,3.289
					c0.513-0.087,2.306-0.667,3.3-0.854c1.835-0.299,2.867,0.62,3.671,1.755c-0.497,0.561-0.249,2.184-0.181,2.877
					c0.026,0.172-0.138,0.387,0.097,0.83c-0.247,0.261-1.024,1.822-0.953,2.439c0.373,2.612,3.416,4.619,4.969,6.154
					c0.704,0.771,0.707,2.031,1.173,3.035c0.607,1.206,1.113,1.925,1.637,4.107c0.238,1.148,0.785,1.506,0.87,2.824
					c0.167,2.748-2.407,4.759-2.255,8.335c0.203,3.322,1.691,4.671,3.146,6.582c0.417,0.547,0.957,0.615,0.986,1.286
					c-0.04,0.384,0.004,0.829,0.022,1.261c0.069,4.091,1.23,5.236,2.699,6.209c0.369,0.246,1.091,2.011,1.874,3.133
					c0.229,0.407,0.188,0.9-0.191,1.367c0.41,0.276,0.277,0.856,0.223,1.673c0.063-0.075,0.175-0.18,0.432-0.358
					c0.218,0.351,0.578,0.545,1.261,0.276c1.566-0.675,2.047-2.047,3.715-2.767c0.443-0.161,0.6,0.084,1.042-0.073
					c0.365-0.164,0.653-0.507,1.156-0.774c0.168-0.781,1.411-0.932,2.077-1.518c1.605-1.489,2.175-2.887,3.152-4.592
					c0.688-1.054,1.078-1.313,1.939-2.546c0.388-0.739,1.149-1.947,1.251-3.129c0.02-0.385-0.16-0.588-0.428-0.637
					c0.454-1.259-0.04-0.834,1.198-2.081c0.43-0.318,0.988-0.6,1.345-1.187c0.372-0.554,0.534-2.382,0.601-3.26
					c0.058-1.619-0.748-0.926-0.683-2.153c0.031-0.626,0.506-1.51,1.005-1.788c0.506-3.141,4.267-4.214,4.436-7.782
					c0.021-0.338,0.052-0.534-0.217-0.794c0.036-0.995-0.015-1.938,0.017-2.924c0.006-0.336,0.057-0.738,0.079-1.102
					c0.023-0.099,0.239-0.507,0.2-0.768c0.022-0.918-1.167-1.534-1.251-3.161c-0.054-1.453-0.655-2.466-0.716-3.972
					c-0.108-1.379,0.711-1.924,0.859-3.182c0.206-1.941,1.045-1.961,1.658-3.211c0.201-0.471,0.17-2.295,0.413-2.733
					c0.716-1.071,1.314-2.051,1.932-3.213c0.852-1.622,0.969-2.902,1.503-4.934c0.435-1.711,0.956-5.651,0.569-8.264
					c-0.042-0.249-0.119-0.366-0.255-0.647c-0.683,0.565-1.242,1.377-2.18,1.821c-0.642,0.199-0.673-0.112-1.03,0.148
					c-0.354,0.244-0.262,0.854-0.69,0.92c-0.445,0.058-1.052-1.359-1.507-1.815c0.22-0.647-0.111-0.688-0.218-1.49
					c-1.035,0.059-1.563-1.791-2.149-2.356c-0.651-0.581-1.014-0.572-1.669-1.299c-0.781-0.831-0.589-2.034-1.431-3.213
					c-0.715-0.93-1.632-1.976-2.275-3.275c-0.148-0.9-0.331-1.704-0.54-2.554c-0.6-0.566-1.797-1.521-1.891-2.546
					c-1.709-2.811-3.48-5.447-5.317-8.215c-0.058-0.233-0.122-0.572-0.206-0.801c0.815,0.856,2.002,2.886,2.838,3.064
					c-0.018-0.484,0.089-1.608,0.068-2.316c0.083,0.596,0.139,1.162,0.188,1.47c0.063,0.113,0.753,0.917,0.9,1.127
					c0.636,0.762,1.08,1.253,1.68,2.115c0.175,0.255,0.526,0.682,0.757,1.126c0.104,0.254,0.251,0.961,0.51,1.274
					c0.123,0.135,0.573,0.03,0.729,0.225c0.126,0.137,0.331,0.412,0.58,0.604c0.336,0.869,0.839,1.097,1.143,2.205
					c0.371,1.846,0.835,2.767,2.062,3.091c0.229,1.16,1.202,2.613,1.689,3.134c0.468,0.541,1.163,0.992,1.253,2.059
					c0.03,0.394-0.073,1.361,0.284,1.366c0.142,0.949,0.299,1.927,0.693,2.633c0.289,0.495,0.019,0.461,0.123,0.526
					c0.111,0.076,0.86,0.504,0.987,0.547c0.063-0.089,0.08-0.113,0.145-0.195c0.569-0.112,0.529-0.847,0.884-1.467
					c0.563-0.019,0.642,0.029,0.992,0.04c0.266-0.301,0.986-1.742,1.203-1.918c0.589-0.319,0.914-0.665,1.333-1.198
					c-0.105-0.067-0.131-0.266-0.162-0.394c-0.122-0.967,0.893-1.13,1.361-1.372c-0.115-0.514-0.159-1.23,0.238-1.236
					C270.449,157.852,269.346,156.735,270.006,156.653z M251.82,126.473c0.036-0.005,0.023-0.016,0.05-0.013
					C251.909,126.455,251.856,126.467,251.82,126.473z"/>
				
					<radialGradient id="SVGID_8_" cx="132.4307" cy="44.0386" r="28.8121" fx="132.4316" fy="66.1288" gradientTransform="matrix(3.3007 -0.4934 0.5036 3.3689 -282.8586 98.0621)" gradientUnits="userSpaceOnUse">
					<stop  offset="0" style="stop-color:#96DAF8"/>
					<stop  offset="0.4718" style="stop-color:#5ECCF5"/>
					<stop  offset="0.9892" style="stop-color:#2580C3"/>
				</radialGradient>
				<path fill="url(#SVGID_8_)" d="M205.329,87.268c-0.29-0.093-0.576-0.188-0.865-0.277c-0.104,0.011-0.184-0.02-0.295-0.016
					C204.424,87.054,204.801,87.174,205.329,87.268z"/>
				
					<radialGradient id="SVGID_9_" cx="132.4263" cy="44.1333" r="28.9003" fx="132.4272" fy="66.2911" gradientTransform="matrix(3.3007 -0.4934 0.5036 3.3689 -282.8586 98.0621)" gradientUnits="userSpaceOnUse">
					<stop  offset="0" style="stop-color:#96DAF8"/>
					<stop  offset="0.4718" style="stop-color:#5ECCF5"/>
					<stop  offset="0.9892" style="stop-color:#2580C3"/>
				</radialGradient>
				<path fill="url(#SVGID_9_)" d="M210.04,89.016c0.046-0.008,0.074-0.025,0.106-0.034c-0.889-0.344-1.782-0.675-2.68-0.989
					c-0.326-0.054-0.739-0.114-1.042-0.146C206.716,88.217,208.925,88.67,210.04,89.016z"/>
				
					<radialGradient id="SVGID_10_" cx="132.458" cy="44.2661" r="29.0037" fx="132.4589" fy="66.5033" gradientTransform="matrix(3.3007 -0.4934 0.5036 3.3689 -282.8586 98.0621)" gradientUnits="userSpaceOnUse">
					<stop  offset="0" style="stop-color:#96DAF8"/>
					<stop  offset="0.4718" style="stop-color:#5ECCF5"/>
					<stop  offset="0.9892" style="stop-color:#2580C3"/>
				</radialGradient>
				<path fill="url(#SVGID_10_)" d="M204.435,86.982c-0.444-0.144-0.889-0.278-1.334-0.409
					C203.118,86.863,203.726,86.842,204.435,86.982z"/>
				
					<radialGradient id="SVGID_11_" cx="132.4399" cy="44.1763" r="28.9304" fx="132.4409" fy="66.3572" gradientTransform="matrix(3.3007 -0.4934 0.5036 3.3689 -282.8586 98.0621)" gradientUnits="userSpaceOnUse">
					<stop  offset="0" style="stop-color:#96DAF8"/>
					<stop  offset="0.4718" style="stop-color:#5ECCF5"/>
					<stop  offset="0.9892" style="stop-color:#2580C3"/>
				</radialGradient>
				<path fill="url(#SVGID_11_)" d="M207.062,87.847c-0.414-0.147-0.83-0.28-1.249-0.417c-0.074,0.006-0.111,0.025-0.098,0.068
					C205.914,87.896,206.557,87.849,207.062,87.847z"/>
				
					<radialGradient id="SVGID_12_" cx="132.4365" cy="44.1606" r="28.9184" fx="132.4375" fy="66.3324" gradientTransform="matrix(3.3007 -0.4934 0.5036 3.3689 -282.8586 98.0621)" gradientUnits="userSpaceOnUse">
					<stop  offset="0" style="stop-color:#96DAF8"/>
					<stop  offset="0.4718" style="stop-color:#5ECCF5"/>
					<stop  offset="0.9892" style="stop-color:#2580C3"/>
				</radialGradient>
				<path fill="url(#SVGID_12_)" d="M203.491,87.054c-0.462-0.213-0.989-0.359-1.664-0.603
					C201.303,86.441,202.618,86.909,203.491,87.054z"/>
				
					<radialGradient id="SVGID_13_" cx="132.1177" cy="43.0068" r="28.0047" fx="132.1186" fy="64.478" gradientTransform="matrix(3.3007 -0.4934 0.5036 3.3689 -282.8586 98.0621)" gradientUnits="userSpaceOnUse">
					<stop  offset="0" style="stop-color:#96DAF8"/>
					<stop  offset="0.4718" style="stop-color:#5ECCF5"/>
					<stop  offset="0.9892" style="stop-color:#2580C3"/>
				</radialGradient>
				<path fill="url(#SVGID_13_)" d="M201.904,86.446c-0.017,0.002-0.058,0.009-0.075,0.004c0.036,0.007,0.063,0.02,0.097,0.027
					C201.945,86.475,201.928,86.442,201.904,86.446z"/>
				
					<radialGradient id="SVGID_14_" cx="133.0356" cy="50.2153" r="34.3346" fx="133.0367" fy="76.5397" gradientTransform="matrix(3.3007 -0.4934 0.5036 3.3689 -282.8586 98.0621)" gradientUnits="userSpaceOnUse">
					<stop  offset="0" style="stop-color:#96DAF8"/>
					<stop  offset="0.4718" style="stop-color:#5ECCF5"/>
					<stop  offset="0.9892" style="stop-color:#2580C3"/>
				</radialGradient>
				<path fill="url(#SVGID_14_)" d="M201.782,86.429c0.019,0.002,0.061,0.017,0.045,0.021h0.002
					C201.846,86.445,201.805,86.431,201.782,86.429z"/>
				
					<radialGradient id="SVGID_15_" cx="132.437" cy="44.1646" r="28.9197" fx="132.4379" fy="66.3373" gradientTransform="matrix(3.3007 -0.4934 0.5036 3.3689 -282.8586 98.0621)" gradientUnits="userSpaceOnUse">
					<stop  offset="0" style="stop-color:#96DAF8"/>
					<stop  offset="0.4718" style="stop-color:#5ECCF5"/>
					<stop  offset="0.9892" style="stop-color:#2580C3"/>
				</radialGradient>
				<path fill="url(#SVGID_15_)" d="M181.86,113.994c0.265-0.079,0.819-0.162,1.049-0.251c0.453-0.219,0.957-0.829,1.887-0.939
					c0.578-0.052,1.118-0.042,1.425-0.303c0.399-0.278-0.075-0.676-0.143-0.929c-0.07-0.363-0.162-0.731-0.241-1.104
					c-0.046-0.258,0.925-0.311,0.896-0.571c-0.159-0.562-0.873-1.235-2.174-1.138c-0.264,0.019-0.682,0.075-0.939,0.085
					c-0.561,0.071-1.587,0.541-1.549,0.766c0.039,0.158,0.188,0.245,0.421,0.383c-0.265,0.211-1.223,0.457-1.549,0.521
					c-0.145-0.012-0.647,0.004-0.554,0.421c0.023,0.328,0.619,0.436,1.206,0.573c-0.061,0.799-1.455,1.041-1.303,1.867
					C180.347,113.759,181.17,114.013,181.86,113.994z"/>
				
					<radialGradient id="SVGID_16_" cx="132.4351" cy="44.2222" r="28.9926" fx="132.436" fy="66.4508" gradientTransform="matrix(3.3007 -0.4934 0.5036 3.3689 -282.8586 98.0621)" gradientUnits="userSpaceOnUse">
					<stop  offset="0" style="stop-color:#96DAF8"/>
					<stop  offset="0.4718" style="stop-color:#5ECCF5"/>
					<stop  offset="0.9892" style="stop-color:#2580C3"/>
				</radialGradient>
				<path fill="url(#SVGID_16_)" d="M183.796,105.545c0.578-0.005,0.966-0.408,0.879-0.778c-0.357,0.063-1.296,0.251-1.295,0.446
					C183.416,105.339,183.654,105.566,183.796,105.545z"/>
				
					<radialGradient id="SVGID_17_" cx="132.4316" cy="44.1646" r="28.9242" fx="132.4326" fy="66.3407" gradientTransform="matrix(3.3007 -0.4934 0.5036 3.3689 -282.8586 98.0621)" gradientUnits="userSpaceOnUse">
					<stop  offset="0" style="stop-color:#96DAF8"/>
					<stop  offset="0.4718" style="stop-color:#5ECCF5"/>
					<stop  offset="0.9892" style="stop-color:#2580C3"/>
				</radialGradient>
				<path fill="url(#SVGID_17_)" d="M185.747,106.278c-0.012,0.085,0.018,0.168,0.058,0.244c-0.008,0.029-0.312,0.269-0.294,0.43
					c0.026,0.13,0.531,0.173,0.878,0.181c-0.01,0.096,0.055,0.181,0.065,0.279c-0.066,0.073-0.105,0.166-0.171,0.234
					c0.038,0.173,0.078,0.328,0.112,0.501c0.119-0.034,0.323-0.018,0.447-0.038c-0.138-0.088-0.311-0.179-0.11-0.468
					c0.146,0.025,0.509,0.139,0.973,0.081c-0.096,0.282,0.076,0.311,0.136,0.593c0.045,0.259-0.454,0.453-0.4,0.71
					c0.054,0.257,0.433,0.225,0.947,0.178c0.358-0.045,0.673-0.178,1.228-0.251c0.136,0.026,0.363,0.001,0.502-0.007
					c-0.084,0.139-0.335,0.212-0.283,0.475c0.075,0.317,0.842,0.351,1.401,0.254c0.025,0.159,0.077,0.318,0.112,0.477
					c-0.213,0.354-1.327,0.684-2.336,0.803c0.079,0.354,0.552,0.432,0.658,0.909c0.084,0.503-1.385,0.639-1.332,1.161
					c0.023,0.058,0.225,0.125,0.313,0.143c0.221-0.061,0.185-0.19,0.517-0.215c0.654-0.067,0.914,0.325,1.659,0.274
					c0.317-0.045,0.753-0.183,0.919-0.413c0.032,0.079,0.113,0.162,0.174,0.224c0.063,0.501-1.013,0.403-1.8,0.584
					c-0.134,0.041-1.594,1.294-1.69,1.417c0.024,0.061,0.021,0.146,0.042,0.206c0.107,0.023,0.288-0.024,0.395-0.034
					c0.176-0.136,0.342-0.328,0.729-0.341c0.207-0.055,0.571-0.082,0.788-0.067c-0.031-0.262,0.186-0.6,0.767-0.648
					c0.314-0.037,0.652,0.152,1.05,0.122c0.863-0.055,2.257-0.45,2.813-0.513c0.761-0.05,1.463-0.108,2.202-0.141
					c0.678-0.054,0.959-0.228,1.399-0.588c-0.02-0.076-0.056-0.152-0.059-0.23c-0.268,0.059-0.554-0.02-1.12-0.069
					c0.329-0.445,1.531-0.783,1.406-1.399c-0.067-0.322-0.656-0.579-1.297-0.555c-0.361,0.049-0.348-0.018-0.669,0.166
					c0.07-0.051,0.167-0.089,0.234-0.142c-0.182,0.058-0.21,0.189-0.592,0.259c-0.077-0.018-0.029-0.152-0.062-0.226
					c0.146-0.018,0.25-0.146,0.215-0.24c-0.059-0.251-0.667-0.391-0.766-0.634c-0.229-0.834-1.641-0.922-2.65-1.357
					c-0.759-0.335-0.744-1.088-1.846-1.209c-0.37-0.079-0.691,0.12-1.267,0.053c0.071-0.12,0.197-0.246,0.377-0.279
					c-0.164-0.651,1.4-1.107,0.996-1.942c-1.063,0.04-2.12,0.122-3.188,0.205c-0.075-0.067-0.144-0.174-0.227-0.229
					c0.078-0.461,1.231-0.48,1.16-0.862c-0.033-0.056-0.419-0.235-0.602-0.23c-0.511,0.046-1.037,0.102-1.57,0.109
					c-0.271,0.018-0.787,0.286-0.775,0.446c0.036,0.162-0.128,0.264-0.098,0.527c-0.314,0.01-0.752,0.167-0.682,0.422
					c-0.001,0.063,0.221,0.147,0.317,0.161c-0.008,0.061-0.085,0.207-0.177,0.196c-0.081,0.041-0.409-0.05-0.446-0.241
					c-0.244,0.021-0.637,0.033-0.882,0.076C184.431,106.223,184.871,106.246,185.747,106.278z"/>
				
					<radialGradient id="SVGID_18_" cx="132.458" cy="44.187" r="28.9403" fx="132.4589" fy="66.3755" gradientTransform="matrix(3.3007 -0.4934 0.5036 3.3689 -282.8586 98.0621)" gradientUnits="userSpaceOnUse">
					<stop  offset="0" style="stop-color:#96DAF8"/>
					<stop  offset="0.4718" style="stop-color:#5ECCF5"/>
					<stop  offset="0.9892" style="stop-color:#2580C3"/>
				</radialGradient>
				<path fill="url(#SVGID_18_)" d="M188.427,109.654c-0.256,0.129-0.326,0.254-0.294,0.42c0.159-0.018,0.438-0.049,0.61-0.052
					c-0.022-0.129-0.029-0.255-0.038-0.387C188.631,109.62,188.501,109.637,188.427,109.654z"/>
				
					<radialGradient id="SVGID_19_" cx="132.4341" cy="44.1694" r="28.9275" fx="132.435" fy="66.3482" gradientTransform="matrix(3.3007 -0.4934 0.5036 3.3689 -282.8586 98.0621)" gradientUnits="userSpaceOnUse">
					<stop  offset="0" style="stop-color:#96DAF8"/>
					<stop  offset="0.4718" style="stop-color:#5ECCF5"/>
					<stop  offset="0.9892" style="stop-color:#2580C3"/>
				</radialGradient>
				<path fill="url(#SVGID_19_)" d="M172.533,98.84c0.038,0,0.078-0.03,0.098-0.061c-0.155-0.666-2.055-0.27-2.229-0.98
					c-0.01-0.092,0.138-0.206,0.282-0.255c-0.476,0.029-0.782,0.192-1.277,0.278c-0.524,0.047-0.936,0.171-1.022-0.184
					c-0.189,0.079-0.193,0.084-0.594,0.08c-0.12,0.094-0.23,0.156-0.153,0.387c-0.555-0.133-1.088,0.229-1.825,0.33
					c-0.462,0.131-0.934,0.06-1.742,0.184c0.014,0.09-0.038,0.177,0.037,0.243c-0.192-0.027-0.309-0.036-0.781-0.056
					c-0.355,0.119-0.862,0.231-1.275,0.353c-0.271,0.051-0.511-0.061-0.73-0.106c-0.149,0.101-0.109,0.145,0.044,0.316
					c-0.211,0.101-0.561,0.274-0.952,0.313c-0.316,0.06-0.859-0.134-0.868-0.355c-0.035-0.188-0.238-0.165-0.362-0.31
					c-0.123,0.03-0.309,0.052-0.428,0.076c-0.37,0.03-0.514,0.334-0.934,0.44c0.02,0.077,0,0.108,0.02,0.193
					c-0.285-0.048-0.598-0.022-1.075,0.144c0.177,0.294,2.159,0.187,2.8,0.054c0.018,0.094,0.088,0.147,0.246,0.161
					c-0.601,0.196-1.99,0.558-2.779,0.717c0.574,0.122,1.439-0.248,2.325-0.313c-0.111,0.331-0.211,0.485-0.177,0.798
					c-0.138,0.034-0.344,0.146-0.478,0.215c1.188-0.206,1.645,0.075,2.446,0.056c1.518-0.031,2.946-0.031,4.993-0.302
					c1.869-0.32,2.814-0.84,4.107-1.211C170.95,99.856,172.169,99.252,172.533,98.84z"/>
				
					<radialGradient id="SVGID_20_" cx="132.4229" cy="44.1675" r="28.9129" fx="132.4238" fy="66.335" gradientTransform="matrix(3.3007 -0.4934 0.5036 3.3689 -282.8586 98.0621)" gradientUnits="userSpaceOnUse">
					<stop  offset="0" style="stop-color:#96DAF8"/>
					<stop  offset="0.4718" style="stop-color:#5ECCF5"/>
					<stop  offset="0.9892" style="stop-color:#2580C3"/>
				</radialGradient>
				<path fill="url(#SVGID_20_)" d="M93.404,179.988c0.449-0.053,1.028-0.242,1.171-0.879c-0.272-0.17-0.446-0.679-0.827-0.775
					c-0.213,0.059-0.264,0.08-0.482,0.071c-0.07-0.059-0.033-0.249-0.034-0.334c-0.706,0.2-1.538-0.152-1.997-0.679
					c-0.057-0.11-0.245-0.462-0.549-0.425c-0.972,0.301-1.607-0.694-2.793-0.351c-1.169,0.373-1.627,1.266-1.903,2.641
					c0.002-0.129,0.119,0.022,0.211-0.066c0.266-0.485,0.841-1.336,1.319-1.525c0.209,0.011,0.196-0.143,0.37,0.026
					c-0.066,0.172-0.161,0.303,0.089,0.49c0.383-0.163,0.51-0.158,0.768-0.229c0.399-0.104,0.632,0.523,1.028,0.417
					c0.297-0.175,0.27-0.315,0.597-0.121c0.175,0.091,0.094,0.406,0.354,0.333c0.124,0.658,0.58,0.52,1.096,0.728
					c-0.005,0.213-0.053,0.445-0.261,0.507c-0.001,0.082,0.025,0.198,0.021,0.283C92.167,179.992,92.716,180.168,93.404,179.988z"/>
				
					<radialGradient id="SVGID_21_" cx="132.5093" cy="44.1665" r="29.0052" fx="132.5102" fy="66.4048" gradientTransform="matrix(3.3007 -0.4934 0.5036 3.3689 -282.8586 98.0621)" gradientUnits="userSpaceOnUse">
					<stop  offset="0" style="stop-color:#96DAF8"/>
					<stop  offset="0.4718" style="stop-color:#5ECCF5"/>
					<stop  offset="0.9892" style="stop-color:#2580C3"/>
				</radialGradient>
				<path fill="url(#SVGID_21_)" d="M87.02,179.402c0.004,0.084,0.314-0.104,0.354-0.104c0.003-0.228-0.017-0.472-0.049-0.687
					c-0.045,0.002-0.043,0.014-0.081-0.019c0,0.029-0.019,0.013-0.051,0.016c-0.003,0.097,0.024,0.219,0.023,0.316
					C87.344,178.902,87.025,179.111,87.02,179.402z"/>
				
					<radialGradient id="SVGID_22_" cx="132.521" cy="44.1768" r="29.0254" fx="132.5219" fy="66.4305" gradientTransform="matrix(3.3007 -0.4934 0.5036 3.3689 -282.8586 98.0621)" gradientUnits="userSpaceOnUse">
					<stop  offset="0" style="stop-color:#96DAF8"/>
					<stop  offset="0.4718" style="stop-color:#5ECCF5"/>
					<stop  offset="0.9892" style="stop-color:#2580C3"/>
				</radialGradient>
				<path fill="url(#SVGID_22_)" d="M91.481,182.549c0.073,0.326,0.214,0.655,0.559,0.601c0.481-0.188,0.602-0.318,0.987-0.516
					c-0.065-0.165-0.056-0.321-0.326-0.368c0.029,0.028,0.067,0.04,0.071,0.081c-0.258-0.075-0.632-0.233-1.015-0.156
					C91.627,182.313,91.48,182.38,91.481,182.549z"/>
				
					<radialGradient id="SVGID_23_" cx="132.4526" cy="44.1792" r="28.9513" fx="132.4536" fy="66.3762" gradientTransform="matrix(3.3007 -0.4934 0.5036 3.3689 -282.8586 98.0621)" gradientUnits="userSpaceOnUse">
					<stop  offset="0" style="stop-color:#96DAF8"/>
					<stop  offset="0.4718" style="stop-color:#5ECCF5"/>
					<stop  offset="0.9892" style="stop-color:#2580C3"/>
				</radialGradient>
				<path fill="url(#SVGID_23_)" d="M102.294,180.068c0.069,0.513,0.529,0.454,1.044,0.359c0.25-0.063,0.458-0.105,0.596-0.438
					c-0.172-0.221-1.119-0.336-1.247-0.314C102.565,179.726,102.267,179.858,102.294,180.068z"/>
				
					<radialGradient id="SVGID_24_" cx="132.4355" cy="44.1704" r="28.9258" fx="132.4365" fy="66.3478" gradientTransform="matrix(3.3007 -0.4934 0.5036 3.3689 -282.8586 98.0621)" gradientUnits="userSpaceOnUse">
					<stop  offset="0" style="stop-color:#96DAF8"/>
					<stop  offset="0.4718" style="stop-color:#5ECCF5"/>
					<stop  offset="0.9892" style="stop-color:#2580C3"/>
				</radialGradient>
				<path fill="url(#SVGID_24_)" d="M95.36,182.158c-0.004-0.115-0.009-0.282-0.011-0.4c0.22,0.127,0.103-0.028,0.403-0.084
					c0.443-0.115,1.172-0.403,1.561-0.196c0.194,0.163,0.193,0.627,0.49,0.555c0.456-0.12,0.253-0.951,0.729-1.064
					c0.218-0.001,0.136,0.249,0.388,0.169c0.3-0.051,0.404-0.257,0.614-0.536c0.451-0.106,0.908-0.194,1.382-0.294
					c-0.326-0.47-0.699-0.552-1.131-0.884c0.07,0.061,0.139,0.101,0.21,0.159c-0.706-0.339-0.989-1.083-2.165-0.835
					c-0.388,0.099-0.599,0.337-1.031,0.438c-0.374,0.115-0.512-0.207-0.861-0.146c-0.132-0.004-0.235,0.275-0.236,0.401
					c0.046,0.253,0.239,0.5,0.492,0.432c0.055,0.335,0.083,0.717,0.344,0.978c-0.386,0.381-0.737,0.242-1.516,0.391
					c-0.043,0.042-0.062,0.193-0.139,0.232C94.884,181.721,95.094,182.115,95.36,182.158z"/>
				
					<radialGradient id="SVGID_25_" cx="132.4897" cy="44.1685" r="29.0057" fx="132.4907" fy="66.4071" gradientTransform="matrix(3.3007 -0.4934 0.5036 3.3689 -282.8586 98.0621)" gradientUnits="userSpaceOnUse">
					<stop  offset="0" style="stop-color:#96DAF8"/>
					<stop  offset="0.4718" style="stop-color:#5ECCF5"/>
					<stop  offset="0.9892" style="stop-color:#2580C3"/>
				</radialGradient>
				<path fill="url(#SVGID_25_)" d="M110.658,192.126c0.024,0.138,0.258-0.032,0.387-0.058c0.252-0.042,0.368-0.61,0.404-0.809
					c-0.016-0.108-0.04-0.296-0.055-0.399c-0.129,0.019-0.262,0.038-0.39,0.059C110.751,190.96,110.611,191.542,110.658,192.126z"/>
				
					<radialGradient id="SVGID_26_" cx="132.4185" cy="44.1675" r="28.8979" fx="132.4194" fy="66.3235" gradientTransform="matrix(3.3007 -0.4934 0.5036 3.3689 -282.8586 98.0621)" gradientUnits="userSpaceOnUse">
					<stop  offset="0" style="stop-color:#96DAF8"/>
					<stop  offset="0.4718" style="stop-color:#5ECCF5"/>
					<stop  offset="0.9892" style="stop-color:#2580C3"/>
				</radialGradient>
				<path fill="url(#SVGID_26_)" d="M128.033,207.964c0.136,0.528,1.534,1.411,2.326,1.347c0.604-0.112,1.122-1.498,1.006-1.993
					c-0.009-0.09-0.277-0.5-0.452-0.487c-0.209,0.028-0.579,0.718-0.822-0.027c-0.338,0.047-0.813-0.216-1.14-0.402
					c-0.059-0.002-0.141,0.026-0.199,0.021C128.155,206.526,127.882,207.091,128.033,207.964z"/>
				
					<radialGradient id="SVGID_27_" cx="132.4561" cy="44.2676" r="28.8509" fx="132.457" fy="66.3875" gradientTransform="matrix(3.3007 -0.4934 0.5036 3.3689 -282.8586 98.0621)" gradientUnits="userSpaceOnUse">
					<stop  offset="0" style="stop-color:#96DAF8"/>
					<stop  offset="0.4718" style="stop-color:#5ECCF5"/>
					<stop  offset="0.9892" style="stop-color:#2580C3"/>
				</radialGradient>
				<path fill="url(#SVGID_27_)" d="M138.688,270.578c-0.263-0.025-0.323-0.043-0.698-0.127c-0.298-0.07-0.283,0.084-0.585,0.051
					c-0.162-0.074,0.072,0.207-0.234,0.154c0.044,0.135,0.108,0.099,0.152,0.231c0.051-0.101,0.189,0.018,0.271,0.053
					c0.306,0.014,0.354,0.165,0.384-0.13c0.343,0.068,0.942,0.196,0.827-0.054C138.708,270.708,138.754,270.663,138.688,270.578z"/>
				
					<radialGradient id="SVGID_28_" cx="132.4302" cy="44.2041" r="28.8924" fx="132.4311" fy="66.3559" gradientTransform="matrix(3.3007 -0.4934 0.5036 3.3689 -282.8586 98.0621)" gradientUnits="userSpaceOnUse">
					<stop  offset="0" style="stop-color:#96DAF8"/>
					<stop  offset="0.4718" style="stop-color:#5ECCF5"/>
					<stop  offset="0.9892" style="stop-color:#2580C3"/>
				</radialGradient>
				<path fill="url(#SVGID_28_)" d="M137.11,270.201c-0.473-0.013-0.762-0.072-1.333-0.26c0.034,0.095,0.234,0.168,0.443,0.277
					c0.09,0.274-0.172-0.078-0.312,0.219c0.088,0.044,0.175,0.104,0.269,0.149c0.508-0.037,0.614-0.175,1.05-0.206
					C137.135,270.335,137.177,270.289,137.11,270.201z"/>
				
					<radialGradient id="SVGID_29_" cx="132.5044" cy="44.1035" r="29.021" fx="132.5053" fy="66.3539" gradientTransform="matrix(3.3007 -0.4934 0.5036 3.3689 -282.8586 98.0621)" gradientUnits="userSpaceOnUse">
					<stop  offset="0" style="stop-color:#96DAF8"/>
					<stop  offset="0.4718" style="stop-color:#5ECCF5"/>
					<stop  offset="0.9892" style="stop-color:#2580C3"/>
				</radialGradient>
				<path fill="url(#SVGID_29_)" d="M117.745,259.112c-0.091-0.036-0.107,0.044-0.088,0.149c0.248,0.196,0.499,0.386,0.748,0.583
					c-0.005-0.014-0.011-0.023-0.021-0.032c0.068-0.09,0.077-0.032-0.032-0.211C118.2,259.37,118.059,259.202,117.745,259.112z"/>
				
					<radialGradient id="SVGID_30_" cx="132.4351" cy="44.1675" r="28.926" fx="132.436" fy="66.3451" gradientTransform="matrix(3.3007 -0.4934 0.5036 3.3689 -282.8586 98.0621)" gradientUnits="userSpaceOnUse">
					<stop  offset="0" style="stop-color:#96DAF8"/>
					<stop  offset="0.4718" style="stop-color:#5ECCF5"/>
					<stop  offset="0.9892" style="stop-color:#2580C3"/>
				</radialGradient>
				<path fill="url(#SVGID_30_)" d="M80.668,170.954c0.422-0.228,0.02,0.381,0.435,0.13c0.196-0.171,0.037-0.294,0.241-0.468
					c0.792-0.364,0.705,0.974,1.277,0.122c-0.403-0.385-0.147-0.598-0.068-1.111c-0.022-0.008-0.083-0.029-0.232-0.047
					c0.302-0.421,0.737-0.567,1.031-0.877c0.042,0.115,0.012,0.244,0.144,0.264c0.274-0.219,0.235-0.451,0.511-0.591
					c0.551-0.246,0.756,0.58,1.173,0.428c0.349-0.173,0.138-0.626,0.497-0.781c1.039-0.415,0.798,2.234,1.272,3.54
					c0.199,0.645,0.497,0.729,0.839,1.343c0.207,0.403,0.189,1.057,0.593,0.926c0.465-0.149,0.556-1.045,0.51-1.982
					c-0.058-0.807-0.282-1.116-0.4-1.663c0.006-0.066-0.019-0.151-0.009-0.218c-0.052-1.426-0.792-1.563-0.83-3
					c-0.058-3.219,1.247-3.896,2.61-5.613c-0.043-0.012-0.047-0.012-0.078-0.052c0.189-0.31,0.154-0.431,0.486-0.766
					c0.318-0.183,0.378-0.582,0.735-0.827c0.186-0.161,0.269-0.43,0.355-0.623c-0.188-0.051-0.186-0.054-0.354-0.161
					c0.026-0.104-0.019-0.235,0.006-0.345c0.366-0.138,0.377-0.11,0.464-0.631c-0.22,0.039-0.296,0.076-0.404-0.205
					c0.189-0.102,0.394-0.359,0.397-0.694c-0.011-0.134,0.006-0.293,0.009-0.428c-0.095,0.044-0.108,0.067-0.213,0.084
					c-0.241-0.265,0.027-0.205,0.011-0.643c0.048-0.423-0.11-1.096-0.106-1.429c0,0-0.015-0.348,0.042-0.563
					c0.025,0.419,0.283,0.928,0.287,1.262c-0.041,0.141-0.009,0.317-0.008,0.468c-0.021,0.079,0.037,0.246,0.109,0.208
					c0.117-0.069,0.725-1.811,0.732-2.059c0.021-0.327-0.165-0.364-0.246-0.688c0.067-0.071,0.128-0.185,0.155-0.28
					c0.056,0.103,0.103,0.338,0.2,0.242c0.277-0.138,0.833-1.827,0.917-2.199c0,0-0.236-0.181-0.255-0.388
					c0.036-0.114,0.091-0.281,0.19-0.376c0.125-0.048,0.156-0.029,0.279-0.083c0.42-0.227,0.741-0.327,1.206-0.741
					c-0.34-0.131-0.514,0.199-0.791,0.35c-0.136,0.055-0.169,0.111-0.313,0.138c0.692-0.815,1.682-1.043,2.412-1.964
					c0.185,0.145,0.668-0.281,1.115-0.596c-0.042-0.086-0.029-0.212,0.008-0.302c0,0-0.301,0.427-0.384,0.453
					c-0.249,0.089-0.309-0.417-0.302-0.621c-0.132,0.044-0.124-0.199-0.122-0.32c0.09-1.642,1.274-1.701,1.877-2.62
					c0.363-0.348,0.394-0.445,0.811-0.631c0.458-0.228,0.902-0.625,1.166-1.183c-0.053-0.109-0.101-0.122-0.145-0.231
					c0.041-0.005,0.019-0.093-0.017-0.115c0.014-0.039-0.01-0.091,0.009-0.125c0.081,0.043,0.227-0.111,0.353-0.147
					c0.242-0.118,1.089-0.33,1.461-0.677c0.281-0.435,0.332-0.911,0.922-1.197c-0.032,0.632-0.085,0.665,0.543,0.407
					c-0.889,0.464-2.177,1.609-2.256,2.561c0.034,0.364,0.459,0.871,0.708,0.78c0.325-0.133,0.983-1.504,1.793-2.076
					c0.151-0.172,2.858-2.214,2.903-2.577c0.034-0.49-1.016-0.173-1.244-0.04c-1.135,0.371-2.635-0.015-2.738-0.995
					c0.024,0.045,0.065,0.045,0.117-0.125c-0.036,0.011-0.083,0.02-0.132,0.029v0.002c-0.002,0.001-0.007,0.002-0.007,0.002
					c-0.22,0.043-0.511,0.125-0.771,0.227c0.309-0.416,1.573-1.141,1.618-1.993c0.053-0.773-1.105-0.165-1.848,0.207
					c-1.626,0.667-2.36,2.214-3.349,2.866c0.501-1.297,1.151-1.235,2.028-2.472c0.504-0.813,0.166-0.95,0.967-1.581
					c1.369-1.097,2.086-1.171,3.575-1.75c1.881-0.798,3.402-0.582,4.721-2.594c0.677-0.934,3.753-2.059,3.857-3.069
					c0.068-0.728-0.3-0.856-0.639-1.196c-0.308,0.167,0.122-0.36-0.305-0.33c-0.057-0.111,0.015-0.235,0.016-0.36
					c-0.957,0.775-2.902,2.002-3.875,2.396c-0.121,0.048-0.32,0.083-0.381,0.038c0.803-0.662,2.99-1.753,3.322-2.412
					c0.048-0.155-0.293-0.041-0.325-0.198c-0.966,0.491-2.908,0.979-2.851-0.016c-0.019-0.022-0.009-0.061,0.007-0.084
					c-0.846,0.355-1.291,0.162-1.738,0.11c0.177-0.16,0.553-0.395,0.61-0.759c0.044-0.31-0.254-0.323-0.168-0.665
					c-0.384,0.129-1.376,0.093-1.059-0.589c0.436-0.822-1.024-0.188-1.021-0.867c-0.083,0.107-0.316-0.019-0.532-0.042
					c-0.252,0.239-0.949,0.833-0.903,1.138c0.035,0.502-0.554,0.917-1.21,1.557c-0.416,0.377-0.861,1.058-1.189,1.232
					c-0.55,0.355-0.81-0.305-1.201-0.124c-0.524,0.31-0.01-1.112,0.018-1.611c0.002-0.615-1.653,0.88-1.48-0.056
					c-0.781,0.461-0.541-0.065-1.342,0.429c-0.177,0.271-0.326,0.231-0.593,0.422c-0.333,0.222-0.584,0.339-0.802,0.444
					c-0.701,1.056-1.374,2.131-2.034,3.219c0.076,0.069,0.148,0.136,0.121,0.252c-0.081,0.651-0.836,1.395-1.179,1.743
					c0.426,0.761,0.813-0.086,1.012,0.177c0.338,0.533-0.182,1.064-0.323,1.876c-0.105,0.451-1.856,2.728-2.349,3.185
					c0.778-0.102,0.17,1.582,0.446,1.819c-0.11,0.238-0.458,0.962-0.561,1.292c-0.436,0.298-0.336,0.625-0.798,0.514
					c-0.519-0.107-1.15-0.485-1.024-1.242c0.097-0.536,0.195-0.982,0.104-1.207c-1.229,2.559-2.358,5.178-3.363,7.853
					c0.218,0.092,0.498,0.366,0.516,0.487c0.054,0.522-0.296,0.556,0.011,0.894c0.345,0.412,1.024-0.214,1.551-0.015
					c0.296-0.219,0.35-0.108,0.599-0.388c0.556,0.217,0.574,0.207,0.523,0.776c-0.091,0.248-0.08,0.426-0.291,0.583
					c-0.471,0.208-0.423-0.054-0.601-0.198c-0.167,0.674-0.531,2.474-0.855,2.69c-0.418-0.32-0.231-0.417-0.207-0.913
					c-0.281,0.345-0.195,0.401-0.467,0.536c0.093-0.511,0.316-0.989,0.386-1.469c-0.013-0.413-0.534-0.566-0.822-0.381
					c-0.368,0.286-0.092,0.816-0.839,1.455c-0.365,0.304-0.355,1.227-0.399,1.671c-0.048,0.4-0.06,0.733-0.125,1.122
					c-0.067,0.452-0.309,1.589-0.541,1.803c-0.41,0.23-0.415,0.003-0.358-0.394c0.109-0.916,0.486-2.773,0.875-3.795
					c-0.333,0.274-0.297,0.435-0.505,0.829c0.112-0.792,0.958-2.252,1.43-2.592c0.205-0.277,0.598-0.288,0.915-0.675
					c-0.021-0.154,0.038-0.267,0.051-0.42c-0.451,0.316-0.6,0.086-1.079,0.424c-0.333,0.335-0.378,0.554-0.577,0.761
					c-0.125,0.125-0.193,0.142-0.23,0.081c-2.651,7.728-4.371,15.856-5.052,24.229C80.262,171.926,80.299,171.2,80.668,170.954z
					 M100.27,139.357c0.024-0.003,0.002,0.039,0.009,0.061C100.261,139.406,100.294,139.354,100.27,139.357z M100.31,140.257
					c-0.013,0.16,0.034,0.312,0.005,0.471C100.304,140.569,100.317,140.419,100.31,140.257z M89.468,149.424
					c0.065-0.01,0.053,0.087,0.036,0.15C89.521,149.511,89.445,149.489,89.468,149.424z M89.339,149.111
					c-0.024-0.185,0.265-0.372,0.347-0.478c0.602-0.572,1.875-1.677,2.565-2.066c-0.14,1.433-1.833,1.951-2.566,2.388
					c-0.21,0.019-0.083-0.011-0.301,0.202c-0.014,0.045,0.002,0.073,0.025,0.094C89.367,149.217,89.314,149.189,89.339,149.111z
					 M86.979,151.771c0.037,0.227,0.095,0.39,0.298,0.233c0.342-0.181,0.29-0.338,0.352-0.561c0.275-0.444,0.591-0.633,0.928-0.832
					c0.342-0.211,0.417,0.004,0.577-0.181c0.136-0.216,0.263-0.333,0.428-0.526c-0.543,0.66-1.705,2.209-2.342,2.586
					C86.881,152.763,86.955,152.167,86.979,151.771z"/>
				
					<radialGradient id="SVGID_31_" cx="112.5732" cy="28.231" r="0.0011" fx="112.5737" fy="28.2319" gradientTransform="matrix(3.3007 -0.4934 0.5036 3.3689 -282.8586 98.0621)" gradientUnits="userSpaceOnUse">
					<stop  offset="0" style="stop-color:#96DAF8"/>
					<stop  offset="0.4718" style="stop-color:#5ECCF5"/>
					<stop  offset="0.9892" style="stop-color:#2580C3"/>
				</radialGradient>
				<path fill="url(#SVGID_31_)" d="M102.929,137.621c0,0,0.005-0.001,0.007-0.004C102.922,137.526,102.92,137.563,102.929,137.621z
					"/>
				
					<radialGradient id="SVGID_32_" cx="135.0313" cy="44.2715" r="31.515" fx="135.0323" fy="68.434" gradientTransform="matrix(3.3007 -0.4934 0.5036 3.3689 -282.8586 98.0621)" gradientUnits="userSpaceOnUse">
					<stop  offset="0" style="stop-color:#96DAF8"/>
					<stop  offset="0.4718" style="stop-color:#5ECCF5"/>
					<stop  offset="0.9892" style="stop-color:#2580C3"/>
				</radialGradient>
				<path fill="url(#SVGID_32_)" d="M82.555,169.607c0.008-0.052,0.021-0.108,0.023-0.17
					C82.536,169.53,82.546,169.578,82.555,169.607z"/>
				
					<radialGradient id="SVGID_33_" cx="132.4351" cy="44.168" r="28.9256" fx="132.436" fy="66.3453" gradientTransform="matrix(3.3007 -0.4934 0.5036 3.3689 -282.8586 98.0621)" gradientUnits="userSpaceOnUse">
					<stop  offset="0" style="stop-color:#96DAF8"/>
					<stop  offset="0.4718" style="stop-color:#5ECCF5"/>
					<stop  offset="0.9892" style="stop-color:#2580C3"/>
				</radialGradient>
				<path fill="url(#SVGID_33_)" d="M152.579,212.246c-0.838-0.111-1.249,0.219-2.116,0.143c-0.962-0.198-2.905-1.453-3.603-2.165
					c-0.639-0.229-1.654-0.472-2.766-0.543c-0.644,0.127-1.325,0.301-2.051,0.502c-1.123,0.13-1.418-0.697-2.603-0.567
					c-0.393,0.053-0.663,0.471-1.083,0.707c-0.096,0.015-0.271,0.022-0.376,0.04c-0.07-0.363-0.095-0.83-0.346-1.299
					c-0.101-0.32-0.601-0.275-1.129-0.458c-0.717-0.418-2.829-1.104-3.799-1.019c-0.835,0.095-1.239,1.229-1.619,2.125
					c-0.098,0.222-0.275,0.633-0.445,0.678c-0.132,0-0.334-0.423-0.369-0.542c-0.349,0.031-0.802,0.08-1.222,0.124
					c-0.228-0.529-0.5-0.895-1.092-1.096c-0.226-0.067-0.695,0.008-0.811-0.495c-0.292-1.59,0.985-3.641,1.636-4.814
					c-0.073-0.405-0.723-0.467-1.11-0.941c-0.358-0.548-1.275-2.142-1.413-2.762c-0.92-0.144-2.25-1.662-3.029-1.597
					c-0.086-0.024-0.209,0.033-0.299,0.036c-0.004-0.027-0.008-0.079-0.016-0.104c-0.51,0.077-1.37-0.227-1.719-0.367
					c-0.375,0.073-0.782,0.105-1.259,0.161c-1.345-0.067-3.252,0.316-3.85-1.091c-0.218,0.054-0.638-0.061-0.748-0.218
					c-0.76-1.211-1.094-0.996-2.163-1.848c-0.405,0.033-0.823,0.11-1.248,0.169c-0.33-0.634-0.288-1.421-0.877-1.542
					c-0.751-0.188-1.577-0.186-2.042-0.845c-0.023-0.107-0.051-0.293-0.068-0.403c0.15,0.049,0.478-0.044,0.636-0.198
					c0,0-0.802-0.032-1.224,0.03c-0.131,0.088-0.97,0.285-1.021,0.405c-0.103,0.605-0.594,0.727-1.177,0.89
					c-0.346,0.057-0.827,0-0.898-0.429c-0.832,0.081-1.434,0.229-2.157,0.313c-0.267-0.026-0.527-0.339-0.603-0.818
					c-0.589-0.064-1.467-0.188-1.756-0.968c-0.257,0.035-0.407,0.058-0.665,0.091c0.147,0.575,0.584,0.277,0.854,0.811
					c-0.352,0.053-0.551,0.087-0.896,0.137c-0.336,0.368-0.888,0.331-0.784,1.058c0.099,0.583,0.56,0.862,0.669,1.431
					c0.025,0.166-0.049,0.794-0.22,0.831c-0.481,0.085-0.739-0.839-0.831-1.372c-0.054-0.364,0.01-1.251,0.031-2.018
					c0.174-0.024,0.37-0.248,0.274-0.641c-0.005-0.038-0.191-0.545-0.407-0.529c-0.511,0.075-0.459,0.821-0.907,1.08
					c-0.821,0.559-1.332,0.793-2.092,1.295c-0.407,0.284-0.712,0.43-0.724,1.207c0.001,0.343,0.078,0.968-0.11,1.213
					c-0.158,0.269-0.429,0.356-0.386,0.859c-0.088,0.021-0.167,0.178-0.155,0.263c0.016,0.076,0.034,0.196,0.045,0.276
					c-0.278,0.148-0.104,0.075-0.375,0.047c-0.037,0.024-0.057,0.059-0.079,0.099c0.017-0.047,0.035-0.091,0.048-0.141
					c-0.558-0.545-0.88-1.874-1.75-1.779c-0.701,0.062-0.903,1.05-1.681,1.154c-0.449,0.013-0.644-0.781-0.936-0.986
					c-0.503-0.284-1.088-0.622-1.244-1.606c-0.141-0.973-0.28-1.785-0.383-2.727c0.07-0.439-0.121-2.235-0.159-2.631
					c-0.018-0.205-0.061-0.468-0.074-0.67c-0.527-0.086-0.666-0.797-1.309-0.672c-0.816,0.239-1.45,0.583-2.127,0.763
					c-0.26,0.021-0.274-0.071-0.3-0.413c-0.006-0.069-0.022-0.146-0.024-0.217c0.136-0.329,0.305-0.486,0.284-0.956
					c-0.046-0.696-0.126-1.351-0.207-2.07c0.119-0.005,0.092,0.034,0.169-0.05c0.007,0.093-0.011,0.22,0.035,0.304
					c0.042-0.449,0.185-0.815,0.124-1.501c-0.018-0.829,0.233-1.691,0.195-2.323c0.002-0.126-0.027-0.27-0.025-0.393
					c-0.251,0.082-0.343,0.155-0.506,0.075c-0.19,0-0.047-0.058-0.433,0.018c-0.573,0.183-1.208,0.362-1.161,1.636
					c0.071,0.645-0.224,1.295-0.252,1.813c0.004,0.166,0.138,0.64-0.188,0.747c-0.005-0.089-0.065-0.3-0.353-0.134
					c-0.856,0.181-0.553,0.728-0.842,0.878c-0.348,0.014,0.073-0.229-0.303-0.403c-0.394-0.187-0.42-0.829-0.742-1.497
					c-0.015-0.044-0.053-0.08-0.076-0.122c0.054,1.765,0.155,3.54,0.307,5.322c0.019,0.014,0.036,0.014,0.053,0.029
					c0.144,0.13-0.044,0.312,0.305,0.281c0.698-0.251,0.165-0.902,0.463-0.974c0.224-0.265,0.103-0.08,0.368,0.23
					c0.089-0.008,0.104,0.066,0.094-0.027c0.49,0.497,0.804,2.132,1.46,2.64c0.426,0.351,0.663,0.085,1.085,0.387
					c0.565,0.26,0.581,0.644,0.967,0.56c0.302-0.038,0.078-0.257,0.38-0.292c0.089-0.013,0.046-0.018,0.135-0.028
					c0.309,0.989,0.661,1.339,1.186,1.986c0.135,0.271,0.26,0.255,0.416,0.696c0.224,0.668,0.088,1.278,0.507,1.685
					c0.141-0.024,0.098-0.009,0.246-0.036c-0.101-0.065-0.073-0.242-0.063-0.397c-0.001,0.048,0.975,0.829,1.15,1.071
					c0.127,0.354,0.208,0.788,0.625,0.877c0.016,0.083,0.088,0.27,0.173,0.257c0.303-0.063,0.592-0.332,0.823-0.049
					c0.326,0.366,0.687,1.126,1.17,1.115c0.343-0.071,0.36-0.258,0.313-0.736c-0.081-0.053-0.266-0.222-0.298-0.38
					c-0.041-0.245,0.533-1.25,0.834-1.318c0.474-0.076,0.293,1.045,0.685,1.253c-0.03,0.187-0.137,0.316-0.112,0.482
					c0.027,0.125,0.302,0.261,0.408,0.315c0.038-0.005,0.068-0.014,0.063-0.05c0.017,0.088-0.019,0.206,0.002,0.296
					c0.105,0.816,0.661,0.623,0.843,1.597c0.102,0.455-0.024,0.662,0.063,1.211c0.076,0.32,0.282,0.649,0.374,0.992
					c0.018,0.067,0.025,0.167,0.043,0.234c-0.031,0.121-0.043,0.255-0.059,0.377c0.034,0.117,0.197,0.323,0.406,0.432
					c-0.007,1.273-0.776,0.998-0.958,2.008c-0.106,0.768-0.04,1.939-0.842,1.987c0.529,1.985,0.316,2.85,0.563,3.839
					c0.096,0.671,0.393,1.479,0.811,1.493c0.306-0.021,0.124-0.214,0.456,0.05c-0.016,0.711-0.411,0.857-0.534,1.518
					c-0.1,0.214-0.138,0.774,0.016,1.285c0.175,0.785,0.78,1.645,1.265,2.135c0.15,0.188,0.318,0.105,0.53,0.366
					c0.182,0.258,0.399,0.903,0.68,1.219c0.126,0.131,0.261,0.064,0.479,0.316c0.457,0.854,0.823,1.386,1.327,2.396
					c0.474,0.973,0.924,1.895,1.478,2.924c0.345,0.625,0.887,0.957,1.088,1.64c0.207,0.507,0.17,0.951,0.527,1.302
					c0.846,0.819,1.436,1.411,2.506,1.886c0.522,0.222,0.783,0.373,1.355,0.933c0.549,0.479,0.891,0.405,1.515,0.776
					c0.765,0.444,1.491,1.094,2.189,2.117c0.245,0.446,1.253,2.875,1.382,3.299c0.242,0.62,0.255,1.699,0.466,2.233
					c0.183,0.624,0.394,1.179,0.626,1.717c0.037,0.442,0.173,1.019,0.253,1.312c0.079,0.09,0.087,0.223,0.129,0.342
					c0.535,1.298,0.244,1.962,0.817,3.349c0.229,0.63,0.074,0.993,0.551,1.684c0.417,0.89,0.773,1.762,1.193,2.595
					c0.183,0.808,0.412,1.354,0.558,2.022c0.058,0.162-0.13-0.046-0.19,0.153c-0.059,0.36,0.161,0.481,0.078,0.807
					c-0.069,0.689-0.176,0.938,0.223,1.652c0.065,0.278,0.58,0.999,0.73,1.095c0,0,0.225,0.185,0.374,0.378
					c0.01,0.121,0.05,0.231-0.218,0.08c0.168,0.497,0.133,0.65,0.428,1.188c0.208,0.353,0.596,1.018,0.846,1.122
					c0.287,0.111-0.034-0.172,0.298-0.148c0.132-0.018,0.157,0.062,0.288,0.084c0.085,0.188,0.139,0.243,0.248,0.417
					c0.107,0.368,0.204,0.704,0.306,1.034c2.685,2.038,5.477,3.937,8.36,5.687c0.53-0.177,0.806,0.053,0.473-0.492
					c-0.494-0.692-1.745-0.759-2.375-1.647c-0.243-0.33,0.045-0.579,0.563-0.541c0.293,0.11,1.746,0.896,1.667,0.617
					c-0.137-0.635-0.464-1.064-0.063-1.487c-0.22-0.072-0.457-0.17-0.644-0.513c0.425,0.118,0.622,0.384,1.119,0.451
					c0.074,0.046,0.262-0.068,0.187-0.301c-0.104-0.173-0.305-0.218-0.502-0.354c-0.116-0.072-0.199,0.123-0.424,0.103
					c-0.381-0.104-1.182-0.901-1.406-1.32c-0.03-0.202-0.108-0.363,0.193-0.284c0.783,0.157,1.099,0.585,1.937,0.726
					c0.303,0.025,0.782-0.019,0.717-0.209c-0.067-0.121-0.067-0.195-0.148-0.307c0.122-0.637-0.661-0.905-0.367-1.239
					c0.369-0.389,1.67,0.28,2.299,0.226c0.82-0.094,1.801,0.116,2.298-0.354c0.295-0.282,0.519-0.436,0.688-0.898
					c0.196-0.341,0.012-0.471-0.149-0.887c-0.167-0.409-0.823-0.423-1.126-0.824c-0.368-0.396-0.496-0.766-0.945-1.126
					c-0.172-0.056-0.877-0.364-1.007-0.664c-0.054-0.109,0.144-0.137,0.269-0.148c0.646,0.054,1.379,0.477,1.989,0.571
					c0.307-0.01,1.437,0.482,2.146,0.522c2.061,0.099,1.774-1.662,2.302-2.771c0.471-0.948,1.306-1.665,1.854-2.721
					c0.214-0.495,0.225,0.3,0.434-0.214c0.011-0.003,0.027,0.045,0.011,0.048c0.204-0.806,0.49-1.523,1.354-1.937
					c-0.386-1.149-0.782-2.236-1.165-3.425c-0.261-0.808-0.081,0.121,0.424-0.46c0.282-0.283,0.937-0.364,1.196-0.933
					c0.587-1.274,1.971-0.675,2.969-1.785c0.084-0.154,0.114-0.363,0.394-0.506c0.696-0.349,1.436-0.323,2.476-0.396
					c0.915-0.099,1.814-0.732,2.04-1.31c0.04-0.181-0.118-0.705,0.028-1.021c0.606-0.95,0.734-1.391,1.321-2.586
					c0.043-0.178,0.025-1.108-0.083-1.617c-0.072-0.322,0.308-0.892,0.47-1.15c0.021-0.13,0.184-0.395,0.145-0.602
					c-0.115-0.65-0.307-3.154-0.474-4.071c-0.273-1.173-1.318-1.608-0.672-2.465c0.457-0.485,1.046-0.723,1.447-1.516
					c0.246-0.47,0.472-0.642,0.714-1.117c1.122-2.242,3.159-4.513,2.502-8.469C154.252,213.484,153.786,212.481,152.579,212.246z"/>
				
					<radialGradient id="SVGID_34_" cx="105.1177" cy="36.6372" r="0.0021" fx="105.1191" fy="36.6388" gradientTransform="matrix(3.3007 -0.4934 0.5036 3.3689 -282.8586 98.0621)" gradientUnits="userSpaceOnUse">
					<stop  offset="0" style="stop-color:#96DAF8"/>
					<stop  offset="0.4718" style="stop-color:#5ECCF5"/>
					<stop  offset="0.9892" style="stop-color:#2580C3"/>
				</radialGradient>
				<path fill="url(#SVGID_34_)" d="M82.555,169.607c0.001,0.009,0.001,0.012-0.001,0.02
					C82.579,169.635,82.57,169.628,82.555,169.607z"/>
				
					<radialGradient id="SVGID_35_" cx="132.541" cy="44.1538" r="29.038" fx="132.5419" fy="66.4172" gradientTransform="matrix(3.3007 -0.4934 0.5036 3.3689 -282.8586 98.0621)" gradientUnits="userSpaceOnUse">
					<stop  offset="0" style="stop-color:#96DAF8"/>
					<stop  offset="0.4718" style="stop-color:#5ECCF5"/>
					<stop  offset="0.9892" style="stop-color:#2580C3"/>
				</radialGradient>
				<path fill="url(#SVGID_35_)" d="M90.469,173.223c0.025,0.331,0.082,0.849,0.346,0.794c0.066-0.057,0.127-0.193,0.134-0.28
					c-0.042-0.289-0.015-0.568-0.366-0.551C90.643,173.178,90.527,173.227,90.469,173.223z"/>
				
					<radialGradient id="SVGID_36_" cx="132.3086" cy="44.1626" r="28.7885" fx="132.3095" fy="66.2347" gradientTransform="matrix(3.3007 -0.4934 0.5036 3.3689 -282.8586 98.0621)" gradientUnits="userSpaceOnUse">
					<stop  offset="0" style="stop-color:#96DAF8"/>
					<stop  offset="0.4718" style="stop-color:#5ECCF5"/>
					<stop  offset="0.9892" style="stop-color:#2580C3"/>
				</radialGradient>
				<path fill="url(#SVGID_36_)" d="M90.303,170.594c-0.205,0.061-0.323,0.316-0.382,0.498c0.252-0.047,0.43-0.129,0.744-0.25
					C90.564,170.729,90.571,170.445,90.303,170.594z"/>
				
					<radialGradient id="SVGID_37_" cx="132.5293" cy="44.189" r="29.0347" fx="132.5302" fy="66.4498" gradientTransform="matrix(3.3007 -0.4934 0.5036 3.3689 -282.8586 98.0621)" gradientUnits="userSpaceOnUse">
					<stop  offset="0" style="stop-color:#96DAF8"/>
					<stop  offset="0.4718" style="stop-color:#5ECCF5"/>
					<stop  offset="0.9892" style="stop-color:#2580C3"/>
				</radialGradient>
				<path fill="url(#SVGID_37_)" d="M91.403,171.17c-0.088-0.098-0.104-0.207-0.171-0.323
					C91.176,170.97,91.344,171.295,91.403,171.17z"/>
				
					<radialGradient id="SVGID_38_" cx="132.3574" cy="44.1704" r="28.8359" fx="132.3584" fy="66.2789" gradientTransform="matrix(3.3007 -0.4934 0.5036 3.3689 -282.8586 98.0621)" gradientUnits="userSpaceOnUse">
					<stop  offset="0" style="stop-color:#96DAF8"/>
					<stop  offset="0.4718" style="stop-color:#5ECCF5"/>
					<stop  offset="0.9892" style="stop-color:#2580C3"/>
				</radialGradient>
				<path fill="url(#SVGID_38_)" d="M95.608,177.326c0.003-0.122-0.046-0.311-0.041-0.435c-0.075,0.295-0.327,0.614-0.628,0.602
					c0,0.084-0.014,0.217,0.027,0.29c0.056-0.008,0.076-0.011,0.134-0.033C95.316,177.76,95.479,177.53,95.608,177.326z"/>
				
					<radialGradient id="SVGID_39_" cx="132.4551" cy="44.1528" r="28.9267" fx="132.456" fy="66.3309" gradientTransform="matrix(3.3007 -0.4934 0.5036 3.3689 -282.8586 98.0621)" gradientUnits="userSpaceOnUse">
					<stop  offset="0" style="stop-color:#96DAF8"/>
					<stop  offset="0.4718" style="stop-color:#5ECCF5"/>
					<stop  offset="0.9892" style="stop-color:#2580C3"/>
				</radialGradient>
				<path fill="url(#SVGID_39_)" d="M104.544,114.87c-0.272,0.305-0.535,0.617-0.8,0.923c0.277-0.286,0.617-0.514,1-0.785
					C104.653,114.922,104.599,114.888,104.544,114.87z"/>
				
					<radialGradient id="SVGID_40_" cx="132.4326" cy="44.1724" r="28.9276" fx="132.4335" fy="66.3511" gradientTransform="matrix(3.3007 -0.4934 0.5036 3.3689 -282.8586 98.0621)" gradientUnits="userSpaceOnUse">
					<stop  offset="0" style="stop-color:#96DAF8"/>
					<stop  offset="0.4718" style="stop-color:#5ECCF5"/>
					<stop  offset="0.9892" style="stop-color:#2580C3"/>
				</radialGradient>
				<path fill="url(#SVGID_40_)" d="M99.347,122.731c-0.567,0.962,1.093-0.193,1.744-0.375c0.697-0.184,1.279-0.606,2.174-0.854
					c0.088-0.102,0.104,0.191,0.276,0.059c0.174-0.02,0.358-0.239,0.37-0.411c0.141-0.524-1.582,0.029-2.007-0.04
					c0.178-0.124,0.287-0.137,0.46-0.271c0.57,0.122,2.212-0.606,2.812-0.882c0.196-0.249,0.542-0.822,0.658-1.036
					c0.008-0.271-0.536,0.049-0.512-0.125c-0.02-0.159,0.067-0.215,0.079-0.377c-0.199,0.149-0.338,0.186-0.554,0.303
					c0.082-0.415-0.293,0.079-0.843,0.278c-0.332,0.147-0.529,0.032-0.526-0.3c-0.18,0.057-0.238,0.138-0.4,0.24
					c-0.014-0.123,0.043-0.15,0.071-0.271c0.185-0.018,0.235-0.13,0.46-0.275c-0.01-0.097,0.034-0.125,0.053-0.22
					c-0.297,0.269-0.212,0.194-0.598,0.336c0.022-0.038,0.431-0.44,0.658-0.571c1.456-0.848,1.224,0.291,2.927-0.548
					c0.426-0.201,0.464-0.495,0.551-0.75c0.642-0.347,0.742-0.557,0.794-0.615c-0.011-0.101,0.055-0.131,0.047-0.235
					c0.47-0.241,1.031-0.529,1.095-0.844c0.1-0.373-0.193-0.257-0.833,0.058c-0.191,0.103-0.34,0.223-0.583,0.227
					c-0.293-0.502-0.392,0.139-1.145,0.54c-0.473,0.247-0.567,0.058-0.554-0.224c-0.647,0.352-1.426,0.692-1.405,0.314
					c-0.386,0.255-0.538,0.335-0.81,0.385c0.33-0.399,0.572-0.569,1.116-1.006c-0.147-0.132-0.23,0.004-0.413,0.127
					c-0.357,0.188-0.588,0.333-0.825,0.496c-2.005,2.324-3.9,4.747-5.683,7.253C98.418,123.009,98.739,122.982,99.347,122.731z"/>
				
					<radialGradient id="SVGID_41_" cx="132.436" cy="44.1675" r="28.9252" fx="132.437" fy="66.3444" gradientTransform="matrix(3.3007 -0.4934 0.5036 3.3689 -282.8586 98.0621)" gradientUnits="userSpaceOnUse">
					<stop  offset="0" style="stop-color:#96DAF8"/>
					<stop  offset="0.4718" style="stop-color:#5ECCF5"/>
					<stop  offset="0.9892" style="stop-color:#2580C3"/>
				</radialGradient>
				<path fill="url(#SVGID_41_)" d="M152.583,96.343c0.211-0.063,1.072-0.224,1.067-0.441c0.078-0.171-0.482,0.012-0.523-0.314
					c0.23,0,0.521-0.125,0.743-0.146c2.049-0.489,1.57,0.496,3.961,0.103c0.555-0.062,1.369-0.189,1.329-0.439
					c-0.153-0.932-3.266-0.671-5.136-0.885c-0.029-0.117,0.01-0.125-0.015-0.238c0.083-0.021,0.224-0.017,0.638-0.125
					c0.393,0.333,1.844,0.369,2.773,0.208c0.623-0.079,0.708-0.3,0.697-0.587c-0.044-0.187-0.275-0.25-0.581-0.259
					c0.018,0.002,0.034,0,0.05,0.003c0.396-0.353,2.333-0.56,2.641-1.063c-0.221,0.042-0.554,0.013-0.52-0.148
					c0.892-0.242,1.896-0.462,2.162-0.771c-0.622,0.108-1.911,0.411-1.997,0.024c0.031-0.304,0.724-0.351,1.539-0.451
					c-0.248-0.092-0.017-0.135-0.046-0.324c-0.067-0.343-0.749-0.186-0.809-0.495c-0.698,0.058-1.488,0.412-1.576,0.021
					c0.091-0.141,0.4-0.27,0.943-0.375c0.858-0.162,3.343-0.376,3.347-0.74c-0.097-0.56-1.857,0.009-2.137-0.157
					c0.264-0.047,0.633-0.143,0.855-0.218c-0.536,0.021-1.159-0.078-1.946,0.065c-0.528,0.099-0.904,0.23-1.431,0.246
					c0.308-0.14,0.178-0.426,0.755-0.639c0.866-0.225,3.241-0.038,3.262-0.475c0.081-0.013,0.074,0.044-0.023-0.165
					c0.925-0.273,2.124-0.26,2.099-0.589c-0.015-0.103,0.057-0.113,0.099-0.114c-0.021-0.003-0.057-0.011-0.129-0.033
					c0.818-0.236,2.14-0.315,2.073-0.628c-0.309,0.029-0.67,0.094-0.994,0.128c2.1-0.313,3.039-0.732,4.578-0.968
					c0.262-0.072,1.119-0.104,1.12-0.352c-0.142-0.229-2.297-0.106-2.9-0.063c-0.477,0.107-0.729,0.017-0.901,0.24
					c-0.729,0.068-1.48,0.148-2.247,0.283c-0.725,0.154-0.85,0.279-1.699,0.444c-0.179,0.022-1.085,0.124-1.085,0.124
					c-1.021,0.157-2.082,0.305-3.127,0.5c-0.739,0.275-3.013,1.342-4.246,1.698c0.17-0.178,2.96-1.378,3.082-1.514
					c-0.066-0.308-0.338-0.28-1.191-0.103c-1.553,0.277-4.258,1.399-5.394,1.691c-0.341,0.088,1.567-0.78,1.716-0.895
					c-0.855,0.171-8.427,2.063-9.156,2.19c3.276-0.938,6.507-1.754,9.927-2.474c1.277-0.38,4.341-0.871,4.573-1.267
					c-1.138,0.223-2.721,0.521-4.001,0.651c-2.159,0.239-4.076,0.284-6.759,0.948c-2.172,0.56-4.21,1.062-6.338,1.725
					c-1.27,0.39-2.383,0.804-3.491,1.233c-9.167,3.959-17.526,9.3-24.887,15.735c1.635-0.581,2.722-0.514,3.206,0.031
					c-0.011,0.124-0.018,0.128-0.059,0.241c0.369-0.143,0.98-0.514,0.875-0.167c-0.074,0.413-0.928,0.699-0.982,1.101
					c-0.086,0.355,0.262,0.124,0.967-0.189c0.544-0.215,0.688-0.547,1.03-0.722c1.324-0.5,1.484,0.031,2.732-0.264
					c-0.063,0.141-0.021,0.25-0.451,0.424c-0.958,0.436-1.497,0.385-2.354,0.759c-0.378,0.138-0.3,0.082-0.705,0.312
					c0.031,0.122,0.142,0.176,0.315,0.185c-0.063,0.022-0.112,0.043-0.182,0.075c-0.364,0.227-0.882,0.456-0.923,0.729
					c-0.067,0.288,0.341,0.381,0.67,0.272c0.31-0.096,0.544-0.262,0.874-0.37c0.671-0.321,1.516-0.692,1.667-1.036
					c-0.522,0.14-0.836,0.13-1.139,0.137c0.943-0.297,2.18-0.85,2.929-1.06c-0.452,0.69-1.066,1.039-1.408,1.719
					c-0.532,0.096-0.57,0.122-1.15,0.501c-0.01,0.01,0.009,0.036-0.006,0.039c-0.86,0.651-1.166,1.083-1.762,1.684
					c-0.068,0.179-0.025,0.248-0.066,0.436c0.216-0.198,0.516-0.311,0.808-0.337c-0.15,0.229-0.417,0.402-0.467,0.638
					c-0.048,0.585,1.014,0.265,1.214,0.557c0.175,0.213,0.145,0.498,0.344,0.49c0.733-0.041,0.923-0.694,1.563-0.54
					c-0.305,0.182-0.641,0.308-0.68,0.622c-0.046,0.573,1.28,1.353,2.173,1.396c0.137-0.021-0.005,0.292,0.278,0.319
					c0.714-0.013,1.132-0.292,1.437,0.092c0.549-0.201,1.281-0.67,1.923-0.912c1.189-0.346,0.973,0.634,2.186,0.273
					c0.263-0.053,0.375-0.237,0.941-0.439c0.099,0.136,0.226,0.185,0.567,0.046c1.3-0.4,0.742-1.299,1.823-1.909
					c-0.086-0.271,0.005-0.788,0.018-1.174c0.034-0.574,2.337-1.524,2.425-2.202c-0.069-0.247-0.548-0.125-0.562-0.288
					c0.016-0.111,0.203-0.24,0.338-0.328c-0.044-0.074-0.047-0.094-0.09-0.166c0.076-0.667,2.542-1.222,3.585-1.888
					c0.408-0.299,0.26-0.409,0.967-0.738c0.015,0.153,0.033,0.227,0,0.379c0.216-0.057,0.51-0.127,0.727-0.195
					c1.029-0.612,2.665-0.873,3.653-1.516c0.759-0.451-0.643-1.172,0.286-1.769c0.361-0.166,0.792-0.397,1.217-0.63
					c0.058-0.176,0.453-0.327,0.972-0.54c0.762-0.177,1.555-0.355,2.31-0.547c1.912-0.722,3.274-0.953,5.094-1.559
					c1.427-0.436,1.868-1.017,3.538-1.544c0.902-0.3,1.4-0.375,2.125-0.721C157.089,95.965,152.712,96.824,152.583,96.343z
					 M156.082,93.134c0.382,0.111,0.844,0.092,1.369,0.087c-0.697,0.01-1.738,0.255-2.109,0.052
					C155.556,93.217,155.858,93.184,156.082,93.134z"/>
				
					<radialGradient id="SVGID_42_" cx="132.4355" cy="44.0264" r="28.7741" fx="132.4365" fy="66.0875" gradientTransform="matrix(3.3007 -0.4934 0.5036 3.3689 -282.8586 98.0621)" gradientUnits="userSpaceOnUse">
					<stop  offset="0" style="stop-color:#96DAF8"/>
					<stop  offset="0.4718" style="stop-color:#5ECCF5"/>
					<stop  offset="0.9892" style="stop-color:#2580C3"/>
				</radialGradient>
				<path fill="url(#SVGID_42_)" d="M163.48,90.269c-0.266,0.04-0.616,0.092-0.877,0.131c-0.121,0.098-0.429,0.134-0.467,0.27
					c0.023,0.117,0.321,0.171,0.668,0.119c0.515-0.081,1.316-0.375,1.536-0.449c-0.247,0.034-0.578,0.084-0.831,0.122
					C163.605,90.448,163.491,90.374,163.48,90.269z"/>
				
					<radialGradient id="SVGID_43_" cx="132.439" cy="44.1694" r="28.9303" fx="132.4399" fy="66.3503" gradientTransform="matrix(3.3007 -0.4934 0.5036 3.3689 -282.8586 98.0621)" gradientUnits="userSpaceOnUse">
					<stop  offset="0" style="stop-color:#96DAF8"/>
					<stop  offset="0.4718" style="stop-color:#5ECCF5"/>
					<stop  offset="0.9892" style="stop-color:#2580C3"/>
				</radialGradient>
				<path fill="url(#SVGID_43_)" d="M113.686,131.16c0.057-0.087,0.009-0.215,0.01-0.325c0.082-0.032,0.164-0.172,0.217-0.249
					c-0.214-0.059-0.439-0.054-0.678,0.063c-0.294,0.088-0.293,0.314-0.646,0.502c0.012-0.105,0.001-0.208,0.01-0.313
					c0.297-0.735,1.155-1.427,1.205-2.199c0.012-0.133-0.113-0.263-0.283-0.238c-0.704,0.268-0.962,0.882-1.298,1.495
					c-0.651,1.008-1.212,2.75-2.339,3.705c0.032,0.108,0.199,0.099,0.325,0.061c-0.042,0.057-0.028,0.146-0.009,0.213
					c-0.022,0.024-0.743,0.809-0.759,0.949c-0.052,0.087,0.191,0.291,0.403,0.21c0.558-0.144,0.652-0.413,1.293-0.67
					c0.474-0.123,0.664-0.005,1.258-0.185c0.302-0.065,0.521-0.289,0.859-0.473c0.242,0.336,0.785-0.103,1.214-0.26
					c-0.143,0.203-0.534,0.354-0.484,0.747c-0.037,0.057,0.178-0.053,0.261-0.088c0.574-0.152,0.931-0.848,1.279-1.406
					c0.365,0.165,0.076,0.96,0.442,0.85c0.117-0.048,0.228,0.008,0.352-0.041c0.008,0.137,0.067,0.397,0.402,0.317
					c0.495-0.125,0.75-0.649,0.716-1.117c0.026-0.345-0.346-0.256-0.318-0.669c-0.216,0.203-0.083,0.265-0.576,0.402
					c0.016-0.245-0.289-0.308-0.311-0.483c0.016-0.144,0.412-0.356,0.451-0.694c-0.178,0.04-0.42,0.179-0.49,0.27
					c0.043-0.499,0.108-0.842,0.058-1.208c-0.151,0.195-0.786,0.369-1.271,0.428c-0.149,0.105-0.366,0.227-0.524,0.318
					c0.039-0.047-0.001-0.118,0.003-0.178C114.207,130.962,113.944,131.094,113.686,131.16z"/>
				
					<radialGradient id="SVGID_44_" cx="132.4897" cy="44.1685" r="28.9719" fx="132.4907" fy="66.3812" gradientTransform="matrix(3.3007 -0.4934 0.5036 3.3689 -282.8586 98.0621)" gradientUnits="userSpaceOnUse">
					<stop  offset="0" style="stop-color:#96DAF8"/>
					<stop  offset="0.4718" style="stop-color:#5ECCF5"/>
					<stop  offset="0.9892" style="stop-color:#2580C3"/>
				</radialGradient>
				<path fill="url(#SVGID_44_)" d="M90.207,138.74c0.043,0.021,0.029-0.045,0.077-0.061c0.041-0.416-0.167-0.326-0.451-0.128
					c-0.029,0.079-0.003,0.141-0.041,0.216C89.968,138.994,89.985,138.913,90.207,138.74z"/>
				
					<radialGradient id="SVGID_45_" cx="132.4297" cy="44.1621" r="28.928" fx="132.4306" fy="66.3412" gradientTransform="matrix(3.3007 -0.4934 0.5036 3.3689 -282.8586 98.0621)" gradientUnits="userSpaceOnUse">
					<stop  offset="0" style="stop-color:#96DAF8"/>
					<stop  offset="0.4718" style="stop-color:#5ECCF5"/>
					<stop  offset="0.9892" style="stop-color:#2580C3"/>
				</radialGradient>
				<path fill="url(#SVGID_45_)" d="M222.884,130.011c-0.813-0.053-0.965,0.354-1.606,0.359c-0.697,0.048-1.272-0.543-2.233-0.045
					c0.021,0.093,0.07,0.225,0.077,0.315c0.179,0.161,0.623,0.172,0.761,0.195c0.879,0.198,1.695,0.931,2.586,1.082
					c0.04,0.108,0.308,0.193,0.437,0.163c0.125-0.027,0.218-0.205,0.214-0.326c-0.076-0.311-0.343-0.389-0.424-0.711
					c-0.071-0.146,0.12-0.507,0.12-0.507C222.837,130.374,222.84,130.172,222.884,130.011z"/>
				
					<radialGradient id="SVGID_46_" cx="132.4063" cy="44.1616" r="28.9473" fx="132.4072" fy="66.3555" gradientTransform="matrix(3.3007 -0.4934 0.5036 3.3689 -282.8586 98.0621)" gradientUnits="userSpaceOnUse">
					<stop  offset="0" style="stop-color:#96DAF8"/>
					<stop  offset="0.4718" style="stop-color:#5ECCF5"/>
					<stop  offset="0.9892" style="stop-color:#2580C3"/>
				</radialGradient>
				<path fill="url(#SVGID_46_)" d="M213.152,123.634c-0.135-0.035-0.299-0.273-0.323-0.47c-0.223,0.062-0.375,0.481-0.713,0.47
					c-0.101,0.045-0.233,0.079-0.343,0.104c0.256,0.291,0.806,1.584,1.36,1.665C213.237,125.147,213.147,124.151,213.152,123.634z"
					/>
				
					<radialGradient id="SVGID_47_" cx="132.4233" cy="44.1528" r="28.9246" fx="132.4243" fy="66.3293" gradientTransform="matrix(3.3007 -0.4934 0.5036 3.3689 -282.8586 98.0621)" gradientUnits="userSpaceOnUse">
					<stop  offset="0" style="stop-color:#96DAF8"/>
					<stop  offset="0.4718" style="stop-color:#5ECCF5"/>
					<stop  offset="0.9892" style="stop-color:#2580C3"/>
				</radialGradient>
				<path fill="url(#SVGID_47_)" d="M212.799,127.264c0.086,0.266-0.152,0.597-0.098,0.917c0.075,0.308,0.233,0.911,0.754,0.917
					c0.35-0.052,1.159-0.695,1.058-1.336c-0.189-0.72-0.157-1.081-0.775-1.805c-0.132,0.024-0.4-0.208-0.733-0.232
					c-0.401,0.042-0.403,0.465-0.944,0.63C212.142,126.662,212.712,126.873,212.799,127.264z"/>
				
					<radialGradient id="SVGID_48_" cx="132.4385" cy="44.1411" r="28.8871" fx="132.4394" fy="66.2889" gradientTransform="matrix(3.3007 -0.4934 0.5036 3.3689 -282.8586 98.0621)" gradientUnits="userSpaceOnUse">
					<stop  offset="0" style="stop-color:#96DAF8"/>
					<stop  offset="0.4718" style="stop-color:#5ECCF5"/>
					<stop  offset="0.9892" style="stop-color:#2580C3"/>
				</radialGradient>
				<path fill="url(#SVGID_48_)" d="M205.063,128.776c-0.06-0.1-0.375-0.402-0.379-0.483c-0.255,0.09-0.525,0.241-0.802,0.388
					c0.02,0.055,0.617,0.365,0.801,0.356C204.813,129.039,205.064,128.896,205.063,128.776z"/>
				
					<radialGradient id="SVGID_49_" cx="132.4702" cy="44.0649" r="28.7993" fx="132.4711" fy="66.1454" gradientTransform="matrix(3.3007 -0.4934 0.5036 3.3689 -282.8586 98.0621)" gradientUnits="userSpaceOnUse">
					<stop  offset="0" style="stop-color:#96DAF8"/>
					<stop  offset="0.4718" style="stop-color:#5ECCF5"/>
					<stop  offset="0.9892" style="stop-color:#2580C3"/>
				</radialGradient>
				<path fill="url(#SVGID_49_)" d="M210.05,107.643c0.09,0.186,0.414,0.293,0.82,0.251c0.011,0.052,0.018,0.101,0.046,0.151
					c-0.022-0.104,0.095-0.053,0.027-0.206c-0.087-0.188-0.262-0.146-0.346-0.383c-0.185-0.007-0.422,0.004-0.604-0.003
					C210.007,107.521,210.036,107.576,210.05,107.643z"/>
				
					<radialGradient id="SVGID_50_" cx="132.3853" cy="44.1577" r="28.9509" fx="132.3862" fy="66.3544" gradientTransform="matrix(3.3007 -0.4934 0.5036 3.3689 -282.8586 98.0621)" gradientUnits="userSpaceOnUse">
					<stop  offset="0" style="stop-color:#96DAF8"/>
					<stop  offset="0.4718" style="stop-color:#5ECCF5"/>
					<stop  offset="0.9892" style="stop-color:#2580C3"/>
				</radialGradient>
				<path fill="url(#SVGID_50_)" d="M211.391,108.034c-0.03-0.012-0.084-0.044-0.088-0.076c-0.059,0.027-0.073,0.064-0.127,0.091
					c0.026,0.015,0.272,0.139,0.479,0.119c0.682,0.05,0.216-0.643,0.736-0.73c-0.259-0.281-0.358-0.48-0.986-0.506
					c-0.206,0.027-0.46,0.477-0.42,0.553c0.029,0.117,0.451,0.241,0.77,0.311C211.773,107.896,211.592,108.031,211.391,108.034z"/>
				
					<radialGradient id="SVGID_51_" cx="132.4106" cy="44.2334" r="29" fx="132.4116" fy="66.4677" gradientTransform="matrix(3.3007 -0.4934 0.5036 3.3689 -282.8586 98.0621)" gradientUnits="userSpaceOnUse">
					<stop  offset="0" style="stop-color:#96DAF8"/>
					<stop  offset="0.4718" style="stop-color:#5ECCF5"/>
					<stop  offset="0.9892" style="stop-color:#2580C3"/>
				</radialGradient>
				<path fill="url(#SVGID_51_)" d="M219.416,105.644c0.022,0.122,0.135,0.278,0.396,0.289c0.116,0,0.433-0.079,0.429-0.137
					c-0.018-0.083-0.094-0.128-0.085-0.21c0.06-0.009,0.125-0.103,0.14-0.207c-0.113-0.071-0.276-0.13-0.392-0.201
					c0,0-0.205,0.052-0.19,0.155c0.086,0.051,0.187,0.163,0.29,0.222C219.77,105.584,219.65,105.63,219.416,105.644z"/>
				
					<radialGradient id="SVGID_52_" cx="132.4209" cy="44.1362" r="28.9225" fx="132.4218" fy="66.3111" gradientTransform="matrix(3.3007 -0.4934 0.5036 3.3689 -282.8586 98.0621)" gradientUnits="userSpaceOnUse">
					<stop  offset="0" style="stop-color:#96DAF8"/>
					<stop  offset="0.4718" style="stop-color:#5ECCF5"/>
					<stop  offset="0.9892" style="stop-color:#2580C3"/>
				</radialGradient>
				<path fill="url(#SVGID_52_)" d="M238.198,134.064c-0.856-0.194-1.844-0.451-2.785-0.262c0.534,0.279,1.388,0.363,1.745,0.343
					C237.462,134.199,237.703,134.348,238.198,134.064z"/>
				
					<radialGradient id="SVGID_53_" cx="132.4121" cy="44.1777" r="28.9552" fx="132.413" fy="66.3777" gradientTransform="matrix(3.3007 -0.4934 0.5036 3.3689 -282.8586 98.0621)" gradientUnits="userSpaceOnUse">
					<stop  offset="0" style="stop-color:#96DAF8"/>
					<stop  offset="0.4718" style="stop-color:#5ECCF5"/>
					<stop  offset="0.9892" style="stop-color:#2580C3"/>
				</radialGradient>
				<path fill="url(#SVGID_53_)" d="M247.233,133.587c-0.545,0.1-1.408,0.434-1.892,0.722c0.044,0.065,0.162,0.235,0.251,0.218
					c0.024,0.117,0.189,0.245,0.32,0.219c0.395,0.058,0.959-0.131,1.009-0.401c-0.006-0.127-0.179-0.366-0.049-0.415
					C247.115,133.775,247.233,134.01,247.233,133.587z"/>
				
					<radialGradient id="SVGID_54_" cx="132.4795" cy="44.1685" r="28.882" fx="132.4804" fy="66.3123" gradientTransform="matrix(3.3007 -0.4934 0.5036 3.3689 -282.8586 98.0621)" gradientUnits="userSpaceOnUse">
					<stop  offset="0" style="stop-color:#96DAF8"/>
					<stop  offset="0.4718" style="stop-color:#5ECCF5"/>
					<stop  offset="0.9892" style="stop-color:#2580C3"/>
				</radialGradient>
				<path fill="url(#SVGID_54_)" d="M269.749,164.904c0.098,0.225,0.135,0.347,0.265,0.325c0.347-0.059,0.222-0.42,0.241-0.63
					C269.694,164.699,270.035,164.59,269.749,164.904z"/>
				
					<radialGradient id="SVGID_55_" cx="132.4551" cy="44.1816" r="28.9535" fx="132.456" fy="66.3803" gradientTransform="matrix(3.3007 -0.4934 0.5036 3.3689 -282.8586 98.0621)" gradientUnits="userSpaceOnUse">
					<stop  offset="0" style="stop-color:#96DAF8"/>
					<stop  offset="0.4718" style="stop-color:#5ECCF5"/>
					<stop  offset="0.9892" style="stop-color:#2580C3"/>
				</radialGradient>
				<path fill="url(#SVGID_55_)" d="M105.975,134.566c0.34-0.09,0.433-0.233,0.553-0.419c-0.804-0.067-1.452-0.444-2.641,0.264
					C104.326,134.56,105.36,134.829,105.975,134.566z"/>
				
					<radialGradient id="SVGID_56_" cx="132.4233" cy="44.1929" r="28.9329" fx="132.4243" fy="66.3757" gradientTransform="matrix(3.3007 -0.4934 0.5036 3.3689 -282.8586 98.0621)" gradientUnits="userSpaceOnUse">
					<stop  offset="0" style="stop-color:#96DAF8"/>
					<stop  offset="0.4718" style="stop-color:#5ECCF5"/>
					<stop  offset="0.9892" style="stop-color:#2580C3"/>
				</radialGradient>
				<path fill="url(#SVGID_56_)" d="M104.016,138.049c-0.082,0.052-0.111,0.216-0.159,0.307c0.013,0.248,1.4,0.375,1.646,0.282
					c0.087-0.018,0.42-0.372,0.481-0.575c-0.023-0.067,0.007-0.144,0.008-0.219c-0.384,0.155-0.775,0.285-1.163,0.45
					C104.388,138.329,104.208,138.339,104.016,138.049z"/>
				
					<radialGradient id="SVGID_57_" cx="132.4897" cy="44.1724" r="28.9793" fx="132.4907" fy="66.3908" gradientTransform="matrix(3.3007 -0.4934 0.5036 3.3689 -282.8586 98.0621)" gradientUnits="userSpaceOnUse">
					<stop  offset="0" style="stop-color:#96DAF8"/>
					<stop  offset="0.4718" style="stop-color:#5ECCF5"/>
					<stop  offset="0.9892" style="stop-color:#2580C3"/>
				</radialGradient>
				<path fill="url(#SVGID_57_)" d="M107.582,138.337c0.417-0.194,0.913-0.548,0.904-0.799c0.042-0.072,0.008-0.174,0.008-0.254
					c-0.972,0.348-0.361-0.107-0.311-0.429c-0.004-0.141-0.193-0.113-0.273-0.26c-0.433,0.238-0.951,1.362-0.957,1.576
					C106.927,138.377,107.165,138.456,107.582,138.337z"/>
			</g>
		</g>
		
			<ellipse transform="matrix(0.989 -0.1478 0.1478 0.989 -19.1797 26.1575)" opacity="0.2" fill="#FFFFFF" cx="166.363" cy="142.094" rx="72.866" ry="56.935"/>
	</g>
</g>
<text transform="matrix(1 0 0 1 -53.9995 404.6191)" font-family="'ARDELANEY'" font-size="109.5">EUREKA</text>
</svg>
